<svg width="217" height="215" viewBox="0 0 217 215" fill="none" xmlns="http://www.w3.org/2000/svg">
<g opacity="1">
<path d="M75.3998 171.6C71.3998 186.3 73.1998 201.3 79.3998 214C91.0998 206.1 100.1 194 104.1 179.3C108 164.6 106.2 149.6 99.9998 136.9C88.2998 144.8 79.2998 156.8 75.3998 171.6Z" fill="white" stroke="white" stroke-miterlimit="10"/>
<path d="M116.9 136.9C110.7 149.6 108.9 164.6 112.9 179.3C116.8 194 125.8 206.1 137.6 214C143.7 201.3 145.5 186.3 141.6 171.6C137.6 156.8 128.6 144.8 116.9 136.9Z" fill="white" stroke="white" stroke-miterlimit="10"/>
<path d="M141.6 43.5C145.5 28.8 143.7 13.8001 137.6 1.1001C125.8 9.0001 116.8 21 112.9 35.8C108.9 50.5 110.7 65.5 116.9 78.2C128.6 70.3 137.6 58.2 141.6 43.5Z" fill="white" stroke="white" stroke-miterlimit="10"/>
<path d="M79.3998 1C73.1998 13.8 71.3998 28.7 75.3998 43.5C79.2998 58.2 88.2998 70.3 99.9998 78.2C106.2 65.5 108 50.5 104.1 35.8C100.1 21 91.0998 9 79.3998 1Z" fill="white" stroke="white" stroke-miterlimit="10"/>
<path d="M35.7 103.2C50.4 107.1 65.3 105.3 78.1 99.1001C70.1 87.4001 58.1 78.4001 43.4 74.4001C28.6 70.5001 13.7 72.3001 1 78.4001C8.9 90.2001 20.9 99.2001 35.7 103.2Z" fill="white" stroke="white" stroke-miterlimit="10"/>
<path d="M35.7 111.9C20.9 115.9 8.9 124.9 1 136.6C13.7 142.8 28.6 144.6 43.4 140.6C58.1 136.7 70.1 127.6 78.1 115.9C65.3 109.8 50.4 108 35.7 111.9Z" fill="white" stroke="white" stroke-miterlimit="10"/>
<path d="M181.2 111.9C166.5 108 151.6 109.8 138.8 116C146.8 127.6 158.8 136.7 173.5 140.6C188.3 144.6 203.2 142.8 216 136.6C208 124.9 196 115.9 181.2 111.9Z" fill="white" stroke="white" stroke-miterlimit="10"/>
<path d="M181.2 103.2C196 99.1999 208 90.1999 216 78.4999C203.2 72.2999 188.3 70.4999 173.6 74.3999C158.8 78.3999 146.8 87.3999 138.8 99.0999C151.6 105.3 166.5 107.1 181.2 103.2Z" fill="white" stroke="white" stroke-miterlimit="10"/>
<path d="M75.3998 171.6C71.3998 186.3 73.1998 201.3 79.3998 214C91.0998 206.1 100.1 194 104.1 179.3C108 164.6 106.2 149.6 99.9998 136.9C88.2998 144.8 79.2998 156.8 75.3998 171.6Z" fill="white" stroke="white" stroke-miterlimit="10"/>
<path d="M116.9 136.9C110.7 149.6 108.9 164.6 112.9 179.3C116.8 194 125.8 206.1 137.6 214C143.7 201.3 145.5 186.3 141.6 171.6C137.6 156.8 128.6 144.8 116.9 136.9Z" fill="white" stroke="white" stroke-miterlimit="10"/>
<path d="M141.6 43.5C145.5 28.8 143.7 13.8001 137.6 1.1001C125.8 9.0001 116.8 21 112.9 35.8C108.9 50.5 110.7 65.5 116.9 78.2C128.6 70.3 137.6 58.2 141.6 43.5Z" fill="white" stroke="white" stroke-miterlimit="10"/>
<path d="M79.3998 1C73.1998 13.8 71.3998 28.7 75.3998 43.5C79.2998 58.2 88.2998 70.3 99.9998 78.2C106.2 65.5 108 50.5 104.1 35.8C100.1 21 91.0998 9 79.3998 1Z" fill="white" stroke="white" stroke-miterlimit="10"/>
<path d="M35.7 103.2C50.4 107.1 65.3 105.3 78.1 99.1001C70.1 87.4001 58.1 78.4001 43.4 74.4001C28.6 70.5001 13.7 72.3001 1 78.4001C8.9 90.2001 20.9 99.2001 35.7 103.2Z" fill="white" stroke="white" stroke-miterlimit="10"/>
<path d="M35.7 111.9C20.9 115.9 8.9 124.9 1 136.6C13.7 142.8 28.6 144.6 43.4 140.6C58.1 136.7 70.1 127.6 78.1 115.9C65.3 109.8 50.4 108 35.7 111.9Z" fill="white" stroke="white" stroke-miterlimit="10"/>
<path d="M181.2 111.9C166.5 108 151.6 109.8 138.8 116C146.8 127.6 158.8 136.7 173.5 140.6C188.3 144.6 203.2 142.8 216 136.6C208 124.9 196 115.9 181.2 111.9Z" fill="white" stroke="white" stroke-miterlimit="10"/>
<path d="M181.2 103.2C196 99.1999 208 90.1999 216 78.4999C203.2 72.2999 188.3 70.4999 173.6 74.3999C158.8 78.3999 146.8 87.3999 138.8 99.0999C151.6 105.3 166.5 107.1 181.2 103.2Z" fill="white" stroke="white" stroke-miterlimit="10"/>
<path d="M86.7002 72.0999C92.5002 77.8999 94.3002 86.6999 94.8002 94.3999C87.2002 93.8999 78.2002 92.1999 72.4002 86.2999C66.6002 80.3999 64.8002 71.5999 64.2002 63.8999C71.8002 64.4999 80.8002 66.1999 86.7002 72.0999Z" fill="white" stroke="white" stroke-miterlimit="10"/>
<path d="M130.3 72.0999C124.5 77.8999 122.7 86.6999 122.1 94.3999C129.7 93.8999 138.8 92.1999 144.6 86.2999C150.4 80.3999 152.2 71.5999 152.7 63.8999C145.1 64.4999 136.1 66.1999 130.3 72.0999Z" fill="white" stroke="white" stroke-miterlimit="10"/>
<path d="M130.3 143C124.5 137.1 122.7 128.3 122.1 120.6C129.7 121.2 138.8 122.9 144.6 128.7C150.4 134.6 152.2 143.5 152.7 151.1C145.1 150.6 136.1 148.9 130.3 143Z" fill="white" stroke="white" stroke-miterlimit="10"/>
<path d="M86.7002 143C92.5002 137.1 94.2002 128.3 94.8002 120.6C87.2002 121.2 78.2002 122.9 72.3002 128.7C66.6002 134.6 64.8002 143.5 64.2002 151.1C71.8002 150.6 80.8002 148.9 86.7002 143Z" fill="white" stroke="white" stroke-miterlimit="10"/>
</g>
</svg>
