<svg width="1268" height="392" viewBox="0 0 1268 392" fill="none" xmlns="http://www.w3.org/2000/svg">
<g clip-path="url(#clip0_39_392)">
<path d="M768.14 54.4334C643.564 87.4361 536.742 133.84 412.264 166.943C218.73 218.247 -15.1199 218.747 -232 193.545V2116.9L1500 2117V20.8307C1260.26 -15.7722 988.159 -3.87127 768.14 54.4334Z" fill="white"/>
<path d="M843.631 112.728C737.682 131.929 646.839 159.031 540.891 178.232C376.408 208.234 177.518 208.534 -7 193.833V1315H1466V93.1268C1262.18 71.8256 1030.67 78.7261 843.631 112.728Z" fill="#283C8E" stroke="#F1F1F2" stroke-miterlimit="10"/>
<g opacity="0.4">
<path d="M1002.75 270.629C998.75 285.329 1000.55 300.329 1006.75 313.029C1018.45 305.129 1027.45 293.029 1031.45 278.329C1035.35 263.629 1033.55 248.629 1027.35 235.929C1015.65 243.829 1006.65 255.829 1002.75 270.629Z" stroke="white" stroke-miterlimit="10"/>
<path d="M1044.25 235.929C1038.05 248.629 1036.25 263.629 1040.25 278.329C1044.15 293.029 1053.15 305.129 1064.95 313.029C1071.05 300.329 1072.85 285.329 1068.95 270.629C1064.95 255.829 1055.95 243.829 1044.25 235.929Z" stroke="white" stroke-miterlimit="10"/>
<path d="M1068.95 142.529C1072.85 127.829 1071.05 112.829 1064.95 100.129C1053.15 108.029 1044.15 120.029 1040.25 134.829C1036.25 149.529 1038.05 164.529 1044.25 177.229C1055.95 169.329 1064.95 157.229 1068.95 142.529Z" stroke="white" stroke-miterlimit="10"/>
<path d="M1006.75 100.029C1000.55 112.829 998.75 127.729 1002.75 142.529C1006.65 157.229 1015.65 169.329 1027.35 177.229C1033.55 164.529 1035.35 149.529 1031.45 134.829C1027.45 120.029 1018.45 108.029 1006.75 100.029Z" stroke="white" stroke-miterlimit="10"/>
<path d="M963.051 202.229C977.751 206.129 992.651 204.329 1005.45 198.129C997.451 186.429 985.451 177.429 970.751 173.429C955.951 169.529 941.051 171.329 928.351 177.429C936.251 189.229 948.251 198.229 963.051 202.229Z" stroke="white" stroke-miterlimit="10"/>
<path d="M963.051 210.929C948.251 214.929 936.251 223.929 928.351 235.629C941.051 241.829 955.951 243.629 970.751 239.629C985.451 235.729 997.451 226.629 1005.45 214.929C992.651 208.829 977.751 207.029 963.051 210.929Z" stroke="white" stroke-miterlimit="10"/>
<path d="M1108.55 210.929C1093.85 207.029 1078.95 208.829 1066.15 215.029C1074.15 226.629 1086.15 235.729 1100.85 239.629C1115.65 243.629 1130.55 241.829 1143.35 235.629C1135.35 223.929 1123.35 214.929 1108.55 210.929Z" stroke="white" stroke-miterlimit="10"/>
<path d="M1108.55 202.229C1123.35 198.229 1135.35 189.229 1143.35 177.529C1130.55 171.329 1115.65 169.529 1100.95 173.429C1086.15 177.429 1074.15 186.429 1066.15 198.129C1078.95 204.329 1093.85 206.129 1108.55 202.229Z" stroke="white" stroke-miterlimit="10"/>
<path d="M1002.75 270.629C998.75 285.329 1000.55 300.329 1006.75 313.029C1018.45 305.129 1027.45 293.029 1031.45 278.329C1035.35 263.629 1033.55 248.629 1027.35 235.929C1015.65 243.829 1006.65 255.829 1002.75 270.629Z" stroke="white" stroke-miterlimit="10"/>
<path d="M1044.25 235.929C1038.05 248.629 1036.25 263.629 1040.25 278.329C1044.15 293.029 1053.15 305.129 1064.95 313.029C1071.05 300.329 1072.85 285.329 1068.95 270.629C1064.95 255.829 1055.95 243.829 1044.25 235.929Z" stroke="white" stroke-miterlimit="10"/>
<path d="M1068.95 142.529C1072.85 127.829 1071.05 112.829 1064.95 100.129C1053.15 108.029 1044.15 120.029 1040.25 134.829C1036.25 149.529 1038.05 164.529 1044.25 177.229C1055.95 169.329 1064.95 157.229 1068.95 142.529Z" stroke="white" stroke-miterlimit="10"/>
<path d="M1006.75 100.029C1000.55 112.829 998.75 127.729 1002.75 142.529C1006.65 157.229 1015.65 169.329 1027.35 177.229C1033.55 164.529 1035.35 149.529 1031.45 134.829C1027.45 120.029 1018.45 108.029 1006.75 100.029Z" stroke="white" stroke-miterlimit="10"/>
<path d="M963.051 202.229C977.751 206.129 992.651 204.329 1005.45 198.129C997.451 186.429 985.451 177.429 970.751 173.429C955.951 169.529 941.051 171.329 928.351 177.429C936.251 189.229 948.251 198.229 963.051 202.229Z" stroke="white" stroke-miterlimit="10"/>
<path d="M963.051 210.929C948.251 214.929 936.251 223.929 928.351 235.629C941.051 241.829 955.951 243.629 970.751 239.629C985.451 235.729 997.451 226.629 1005.45 214.929C992.651 208.829 977.751 207.029 963.051 210.929Z" stroke="white" stroke-miterlimit="10"/>
<path d="M1108.55 210.929C1093.85 207.029 1078.95 208.829 1066.15 215.029C1074.15 226.629 1086.15 235.729 1100.85 239.629C1115.65 243.629 1130.55 241.829 1143.35 235.629C1135.35 223.929 1123.35 214.929 1108.55 210.929Z" stroke="white" stroke-miterlimit="10"/>
<path d="M1108.55 202.229C1123.35 198.229 1135.35 189.229 1143.35 177.529C1130.55 171.329 1115.65 169.529 1100.95 173.429C1086.15 177.429 1074.15 186.429 1066.15 198.129C1078.95 204.329 1093.85 206.129 1108.55 202.229Z" stroke="white" stroke-miterlimit="10"/>
<path d="M1014.05 171.129C1019.85 176.929 1021.65 185.729 1022.15 193.429C1014.55 192.929 1005.55 191.229 999.751 185.329C993.951 179.429 992.151 170.629 991.551 162.929C999.151 163.529 1008.15 165.229 1014.05 171.129Z" stroke="white" stroke-miterlimit="10"/>
<path d="M1057.65 171.129C1051.85 176.929 1050.05 185.729 1049.45 193.429C1057.05 192.929 1066.15 191.229 1071.95 185.329C1077.75 179.429 1079.55 170.629 1080.05 162.929C1072.45 163.529 1063.45 165.229 1057.65 171.129Z" stroke="white" stroke-miterlimit="10"/>
<path d="M1057.65 242.029C1051.85 236.129 1050.05 227.329 1049.45 219.629C1057.05 220.229 1066.15 221.929 1071.95 227.729C1077.75 233.629 1079.55 242.529 1080.05 250.129C1072.45 249.629 1063.45 247.929 1057.65 242.029Z" stroke="white" stroke-miterlimit="10"/>
<path d="M1014.05 242.029C1019.85 236.129 1021.55 227.329 1022.15 219.629C1014.55 220.229 1005.55 221.929 999.651 227.729C993.951 233.629 992.151 242.529 991.551 250.129C999.151 249.629 1008.15 247.929 1014.05 242.029Z" stroke="white" stroke-miterlimit="10"/>
</g>
<g opacity="0.4">
<path d="M813.7 346.5C811.7 354 812.6 361.5 815.7 368C821.7 364 826.2 357.9 828.2 350.4C830.2 342.9 829.3 335.3 826.2 328.9C820.3 332.9 815.7 339 813.7 346.5Z" stroke="white" stroke-miterlimit="10"/>
<path d="M834.7 328.9C831.6 335.3 830.7 342.9 832.7 350.4C834.7 357.9 839.3 364 845.2 368C848.3 361.5 849.3 354 847.3 346.5C845.3 339 840.7 332.9 834.7 328.9Z" stroke="white" stroke-miterlimit="10"/>
<path d="M847.3 281.5C849.3 274.1 848.3 266.5 845.2 260C839.3 264.1 834.7 270.2 832.7 277.6C830.7 285.1 831.6 292.7 834.7 299.1C840.7 295.1 845.3 289 847.3 281.5Z" stroke="white" stroke-miterlimit="10"/>
<path d="M815.7 260C812.6 266.5 811.7 274.1 813.7 281.5C815.7 289 820.3 295.1 826.2 299.1C829.3 292.7 830.2 285.1 828.2 277.6C826.2 270.2 821.7 264.1 815.7 260Z" stroke="white" stroke-miterlimit="10"/>
<path d="M793.6 311.8C801 313.8 808.6 312.9 815.1 309.7C811 303.8 804.9 299.2 797.5 297.2C790 295.2 782.4 296.1 776 299.3C780 305.2 786.1 309.8 793.6 311.8Z" stroke="white" stroke-miterlimit="10"/>
<path d="M793.6 316.2C786.1 318.2 780 322.8 776 328.7C782.4 331.9 790 332.8 797.5 330.8C804.9 328.8 811 324.2 815.1 318.3C808.6 315.1 801 314.2 793.6 316.2Z" stroke="white" stroke-miterlimit="10"/>
<path d="M867.4 316.2C859.9 314.2 852.3 315.1 845.9 318.3C849.9 324.2 856 328.8 863.5 330.8C870.9 332.8 878.5 331.9 885 328.8C880.9 322.8 874.8 318.2 867.4 316.2Z" stroke="white" stroke-miterlimit="10"/>
<path d="M867.4 311.8C874.8 309.8 880.9 305.2 885 299.3C878.5 296.1 870.9 295.2 863.5 297.2C856 299.2 849.9 303.8 845.9 309.7C852.3 312.9 859.9 313.8 867.4 311.8Z" stroke="white" stroke-miterlimit="10"/>
<path d="M813.7 346.5C811.7 354 812.6 361.5 815.7 368C821.7 364 826.2 357.9 828.2 350.4C830.2 342.9 829.3 335.3 826.2 328.9C820.3 332.9 815.7 339 813.7 346.5Z" stroke="white" stroke-miterlimit="10"/>
<path d="M834.7 328.9C831.6 335.3 830.7 342.9 832.7 350.4C834.7 357.9 839.3 364 845.2 368C848.3 361.5 849.3 354 847.3 346.5C845.3 339 840.7 332.9 834.7 328.9Z" stroke="white" stroke-miterlimit="10"/>
<path d="M847.3 281.5C849.3 274.1 848.3 266.5 845.2 260C839.3 264.1 834.7 270.2 832.7 277.6C830.7 285.1 831.6 292.7 834.7 299.1C840.7 295.1 845.3 289 847.3 281.5Z" stroke="white" stroke-miterlimit="10"/>
<path d="M815.7 260C812.6 266.5 811.7 274.1 813.7 281.5C815.7 289 820.3 295.1 826.2 299.1C829.3 292.7 830.2 285.1 828.2 277.6C826.2 270.2 821.7 264.1 815.7 260Z" stroke="white" stroke-miterlimit="10"/>
<path d="M793.6 311.8C801 313.8 808.6 312.9 815.1 309.7C811 303.8 804.9 299.2 797.5 297.2C790 295.2 782.4 296.1 776 299.3C780 305.2 786.1 309.8 793.6 311.8Z" stroke="white" stroke-miterlimit="10"/>
<path d="M793.6 316.2C786.1 318.2 780 322.8 776 328.7C782.4 331.9 790 332.8 797.5 330.8C804.9 328.8 811 324.2 815.1 318.3C808.6 315.1 801 314.2 793.6 316.2Z" stroke="white" stroke-miterlimit="10"/>
<path d="M867.4 316.2C859.9 314.2 852.3 315.1 845.9 318.3C849.9 324.2 856 328.8 863.5 330.8C870.9 332.8 878.5 331.9 885 328.8C880.9 322.8 874.8 318.2 867.4 316.2Z" stroke="white" stroke-miterlimit="10"/>
<path d="M867.4 311.8C874.8 309.8 880.9 305.2 885 299.3C878.5 296.1 870.9 295.2 863.5 297.2C856 299.2 849.9 303.8 845.9 309.7C852.3 312.9 859.9 313.8 867.4 311.8Z" stroke="white" stroke-miterlimit="10"/>
<path d="M819.4 296C822.4 299 823.3 303.5 823.5 307.4C819.7 307.1 815.1 306.2 812.2 303.2C809.2 300.3 808.3 295.8 808 291.9C811.9 292.2 816.5 293 819.4 296Z" stroke="white" stroke-miterlimit="10"/>
<path d="M841.5 296C838.6 299 837.7 303.5 837.4 307.4C841.3 307.1 845.8 306.2 848.8 303.2C851.7 300.3 852.6 295.8 852.9 291.9C849.1 292.2 844.5 293 841.5 296Z" stroke="white" stroke-miterlimit="10"/>
<path d="M841.5 332C838.6 329 837.7 324.5 837.4 320.6C841.3 320.9 845.8 321.8 848.8 324.8C851.7 327.7 852.6 332.2 852.9 336.1C849.1 335.8 844.5 335 841.5 332Z" stroke="white" stroke-miterlimit="10"/>
<path d="M819.4 332C822.4 329 823.3 324.5 823.5 320.6C819.7 320.9 815.1 321.8 812.2 324.8C809.2 327.7 808.3 332.2 808 336.1C811.9 335.8 816.5 335 819.4 332Z" stroke="white" stroke-miterlimit="10"/>
</g>
<g opacity="0.4">
<path d="M867.9 216.2C866.7 220.7 867.2 225.3 869.1 229.2C872.7 226.7 875.5 223.1 876.7 218.6C877.9 214 877.4 209.5 875.5 205.6C871.9 208 869.1 211.7 867.9 216.2Z" stroke="white" stroke-miterlimit="10"/>
<path d="M880.6 205.6C878.8 209.5 878.2 214 879.4 218.6C880.6 223.1 883.4 226.7 887 229.2C888.9 225.3 889.5 220.7 888.2 216.2C887 211.7 884.2 208 880.6 205.6Z" stroke="white" stroke-miterlimit="10"/>
<path d="M888.2 177C889.5 172.5 888.9 167.9 887 164C883.4 166.5 880.6 170.1 879.4 174.7C878.2 179.2 878.8 183.7 880.7 187.6C884.2 185.2 887 181.5 888.2 177Z" stroke="white" stroke-miterlimit="10"/>
<path d="M869.1 164C867.2 167.9 866.7 172.5 867.9 177C869.1 181.5 871.9 185.2 875.5 187.6C877.4 183.7 877.9 179.2 876.7 174.7C875.5 170.1 872.7 166.5 869.1 164Z" stroke="white" stroke-miterlimit="10"/>
<path d="M855.7 195.3C860.2 196.5 864.8 195.9 868.7 194C866.3 190.4 862.6 187.7 858 186.5C853.5 185.3 848.9 185.8 845 187.7C847.4 191.3 851.1 194 855.7 195.3Z" stroke="white" stroke-miterlimit="10"/>
<path d="M855.7 197.9C851.1 199.1 847.4 201.9 845 205.5C848.9 207.4 853.5 207.9 858 206.7C862.6 205.5 866.3 202.7 868.7 199.2C864.8 197.3 860.2 196.7 855.7 197.9Z" stroke="white" stroke-miterlimit="10"/>
<path d="M900.4 197.9C895.9 196.7 891.3 197.3 887.4 199.2C889.8 202.7 893.5 205.5 898.1 206.7C902.6 207.9 907.2 207.4 911.1 205.5C908.7 201.9 905 199.2 900.4 197.9Z" stroke="white" stroke-miterlimit="10"/>
<path d="M900.4 195.3C905 194 908.7 191.3 911.1 187.7C907.2 185.8 902.6 185.3 898.1 186.5C893.5 187.7 889.8 190.4 887.4 194C891.3 195.9 895.9 196.5 900.4 195.3Z" stroke="white" stroke-miterlimit="10"/>
<path d="M867.9 216.2C866.7 220.7 867.2 225.3 869.1 229.2C872.7 226.7 875.5 223.1 876.7 218.6C877.9 214 877.4 209.5 875.5 205.6C871.9 208 869.1 211.7 867.9 216.2Z" stroke="white" stroke-miterlimit="10"/>
<path d="M880.6 205.6C878.8 209.5 878.2 214 879.4 218.6C880.6 223.1 883.4 226.7 887 229.2C888.9 225.3 889.5 220.7 888.2 216.2C887 211.7 884.2 208 880.6 205.6Z" stroke="white" stroke-miterlimit="10"/>
<path d="M888.2 177C889.5 172.5 888.9 167.9 887 164C883.4 166.5 880.6 170.1 879.4 174.7C878.2 179.2 878.8 183.7 880.7 187.6C884.2 185.2 887 181.5 888.2 177Z" stroke="white" stroke-miterlimit="10"/>
<path d="M869.1 164C867.2 167.9 866.7 172.5 867.9 177C869.1 181.5 871.9 185.2 875.5 187.6C877.4 183.7 877.9 179.2 876.7 174.7C875.5 170.1 872.7 166.5 869.1 164Z" stroke="white" stroke-miterlimit="10"/>
<path d="M855.7 195.3C860.2 196.5 864.8 195.9 868.7 194C866.3 190.4 862.6 187.7 858 186.5C853.5 185.3 848.9 185.8 845 187.7C847.4 191.3 851.1 194 855.7 195.3Z" stroke="white" stroke-miterlimit="10"/>
<path d="M855.7 197.9C851.1 199.1 847.4 201.9 845 205.5C848.9 207.4 853.5 207.9 858 206.7C862.6 205.5 866.3 202.7 868.7 199.2C864.8 197.3 860.2 196.7 855.7 197.9Z" stroke="white" stroke-miterlimit="10"/>
<path d="M900.4 197.9C895.9 196.7 891.3 197.3 887.4 199.2C889.8 202.7 893.5 205.5 898.1 206.7C902.6 207.9 907.2 207.4 911.1 205.5C908.7 201.9 905 199.2 900.4 197.9Z" stroke="white" stroke-miterlimit="10"/>
<path d="M900.4 195.3C905 194 908.7 191.3 911.1 187.7C907.2 185.8 902.6 185.3 898.1 186.5C893.5 187.7 889.8 190.4 887.4 194C891.3 195.9 895.9 196.5 900.4 195.3Z" stroke="white" stroke-miterlimit="10"/>
<path d="M871.4 185.7C873.1 187.5 873.7 190.2 873.9 192.6C871.5 192.4 868.7 191.9 867 190.1C865.2 188.3 864.6 185.6 864.5 183.3C866.8 183.4 869.6 183.9 871.4 185.7Z" stroke="white" stroke-miterlimit="10"/>
<path d="M884.8 185.7C883 187.5 882.4 190.2 882.3 192.6C884.6 192.4 887.4 191.9 889.2 190.1C890.9 188.3 891.5 185.6 891.7 183.3C889.3 183.4 886.6 183.9 884.8 185.7Z" stroke="white" stroke-miterlimit="10"/>
<path d="M884.8 207.4C883 205.7 882.4 203 882.3 200.6C884.6 200.8 887.4 201.3 889.2 203.1C890.9 204.9 891.5 207.6 891.7 209.9C889.3 209.8 886.5 209.2 884.8 207.4Z" stroke="white" stroke-miterlimit="10"/>
<path d="M871.4 207.4C873.1 205.7 873.7 203 873.9 200.6C871.5 200.8 868.7 201.3 867 203.1C865.2 204.9 864.6 207.6 864.5 209.9C866.8 209.8 869.6 209.2 871.4 207.4Z" stroke="white" stroke-miterlimit="10"/>
</g>
<g opacity="0.4">
<path d="M1165.8 339.2C1164.6 343.7 1165.2 348.3 1167.1 352.2C1170.7 349.7 1173.4 346.1 1174.7 341.5C1175.9 337 1175.3 332.5 1173.4 328.6C1169.8 331 1167 334.7 1165.8 339.2Z" stroke="white" stroke-miterlimit="10"/>
<path d="M1178.6 328.6C1176.7 332.5 1176.1 337 1177.4 341.5C1178.6 346.1 1181.4 349.7 1185 352.2C1186.8 348.3 1187.4 343.7 1186.2 339.2C1185 334.7 1182.2 331 1178.6 328.6Z" stroke="white" stroke-miterlimit="10"/>
<path d="M1186.2 300C1187.4 295.5 1186.8 290.9 1185 287C1181.4 289.5 1178.6 293.1 1177.4 297.6C1176.1 302.2 1176.7 306.7 1178.6 310.6C1182.2 308.2 1185 304.5 1186.2 300Z" stroke="white" stroke-miterlimit="10"/>
<path d="M1167.1 287C1165.2 290.9 1164.6 295.5 1165.8 300C1167 304.5 1169.8 308.2 1173.4 310.6C1175.3 306.7 1175.9 302.2 1174.7 297.6C1173.4 293.1 1170.7 289.5 1167.1 287Z" stroke="white" stroke-miterlimit="10"/>
<path d="M1153.6 318.3C1158.2 319.5 1162.8 318.9 1166.7 317C1164.2 313.4 1160.5 310.7 1156 309.5C1151.5 308.3 1146.9 308.8 1143 310.7C1145.4 314.3 1149.1 317 1153.6 318.3Z" stroke="white" stroke-miterlimit="10"/>
<path d="M1153.6 320.9C1149.1 322.1 1145.4 324.9 1143 328.5C1146.9 330.4 1151.5 330.9 1156 329.7C1160.5 328.5 1164.2 325.7 1166.7 322.2C1162.8 320.3 1158.2 319.7 1153.6 320.9Z" stroke="white" stroke-miterlimit="10"/>
<path d="M1198.4 320.9C1193.9 319.7 1189.3 320.3 1185.3 322.2C1187.8 325.7 1191.5 328.5 1196 329.7C1200.6 330.9 1205.1 330.4 1209.1 328.5C1206.6 324.9 1202.9 322.1 1198.4 320.9Z" stroke="white" stroke-miterlimit="10"/>
<path d="M1198.4 318.3C1202.9 317 1206.6 314.3 1209.1 310.7C1205.1 308.8 1200.6 308.3 1196 309.5C1191.5 310.7 1187.8 313.4 1185.3 317C1189.3 318.9 1193.9 319.5 1198.4 318.3Z" stroke="white" stroke-miterlimit="10"/>
<path d="M1165.8 339.2C1164.6 343.7 1165.2 348.3 1167.1 352.2C1170.7 349.7 1173.4 346.1 1174.7 341.5C1175.9 337 1175.3 332.5 1173.4 328.6C1169.8 331 1167 334.7 1165.8 339.2Z" stroke="white" stroke-miterlimit="10"/>
<path d="M1178.6 328.6C1176.7 332.5 1176.1 337 1177.4 341.5C1178.6 346.1 1181.4 349.7 1185 352.2C1186.8 348.3 1187.4 343.7 1186.2 339.2C1185 334.7 1182.2 331 1178.6 328.6Z" stroke="white" stroke-miterlimit="10"/>
<path d="M1186.2 300C1187.4 295.5 1186.8 290.9 1185 287C1181.4 289.5 1178.6 293.1 1177.4 297.6C1176.1 302.2 1176.7 306.7 1178.6 310.6C1182.2 308.2 1185 304.5 1186.2 300Z" stroke="white" stroke-miterlimit="10"/>
<path d="M1167.1 287C1165.2 290.9 1164.6 295.5 1165.8 300C1167 304.5 1169.8 308.2 1173.4 310.6C1175.3 306.7 1175.9 302.2 1174.7 297.6C1173.4 293.1 1170.7 289.5 1167.1 287Z" stroke="white" stroke-miterlimit="10"/>
<path d="M1153.6 318.3C1158.2 319.5 1162.8 318.9 1166.7 317C1164.2 313.4 1160.5 310.7 1156 309.5C1151.5 308.3 1146.9 308.8 1143 310.7C1145.4 314.3 1149.1 317 1153.6 318.3Z" stroke="white" stroke-miterlimit="10"/>
<path d="M1153.6 320.9C1149.1 322.1 1145.4 324.9 1143 328.5C1146.9 330.4 1151.5 330.9 1156 329.7C1160.5 328.5 1164.2 325.7 1166.7 322.2C1162.8 320.3 1158.2 319.7 1153.6 320.9Z" stroke="white" stroke-miterlimit="10"/>
<path d="M1198.4 320.9C1193.9 319.7 1189.3 320.3 1185.3 322.2C1187.8 325.7 1191.5 328.5 1196 329.7C1200.6 330.9 1205.1 330.4 1209.1 328.5C1206.6 324.9 1202.9 322.1 1198.4 320.9Z" stroke="white" stroke-miterlimit="10"/>
<path d="M1198.4 318.3C1202.9 317 1206.6 314.3 1209.1 310.7C1205.1 308.8 1200.6 308.3 1196 309.5C1191.5 310.7 1187.8 313.4 1185.3 317C1189.3 318.9 1193.9 319.5 1198.4 318.3Z" stroke="white" stroke-miterlimit="10"/>
<path d="M1169.3 308.7C1171.1 310.5 1171.6 313.2 1171.8 315.6C1169.5 315.4 1166.7 314.9 1164.9 313.1C1163.1 311.3 1162.6 308.6 1162.4 306.3C1164.7 306.4 1167.5 306.9 1169.3 308.7Z" stroke="white" stroke-miterlimit="10"/>
<path d="M1182.7 308.7C1180.9 310.5 1180.4 313.2 1180.2 315.6C1182.6 315.4 1185.3 314.9 1187.1 313.1C1188.9 311.3 1189.4 308.6 1189.6 306.3C1187.3 306.4 1184.5 306.9 1182.7 308.7Z" stroke="white" stroke-miterlimit="10"/>
<path d="M1182.7 330.4C1180.9 328.6 1180.4 325.9 1180.2 323.6C1182.6 323.8 1185.3 324.3 1187.1 326.1C1188.9 327.9 1189.4 330.6 1189.6 332.9C1187.3 332.8 1184.5 332.2 1182.7 330.4Z" stroke="white" stroke-miterlimit="10"/>
<path d="M1169.3 330.4C1171.1 328.6 1171.6 325.9 1171.8 323.6C1169.5 323.8 1166.7 324.3 1164.9 326.1C1163.1 327.9 1162.6 330.6 1162.4 332.9C1164.7 332.8 1167.5 332.2 1169.3 330.4Z" stroke="white" stroke-miterlimit="10"/>
</g>
<g opacity="0.4">
<path d="M687.4 354.4C686.9 356.3 687.1 358.1 687.9 359.7C689.3 358.7 690.5 357.2 691 355.4C691.5 353.5 691.3 351.7 690.5 350.1C689 351.1 687.9 352.6 687.4 354.4Z" stroke="white" stroke-miterlimit="10"/>
<path d="M692.6 350.1C691.8 351.7 691.6 353.5 692.1 355.4C692.6 357.2 693.7 358.7 695.2 359.7C696 358.1 696.2 356.3 695.7 354.4C695.2 352.6 694.1 351.1 692.6 350.1Z" stroke="white" stroke-miterlimit="10"/>
<path d="M695.7 338.3C696.2 336.5 696 334.6 695.2 333C693.7 334 692.6 335.5 692.1 337.4C691.6 339.2 691.8 341.1 692.6 342.7C694.1 341.7 695.2 340.2 695.7 338.3Z" stroke="white" stroke-miterlimit="10"/>
<path d="M687.9 333C687.1 334.6 686.9 336.5 687.4 338.3C687.9 340.2 689 341.7 690.5 342.7C691.3 341.1 691.5 339.2 691 337.4C690.5 335.5 689.4 334 687.9 333Z" stroke="white" stroke-miterlimit="10"/>
<path d="M682.4 345.8C684.2 346.3 686.1 346.1 687.7 345.3C686.7 343.8 685.2 342.7 683.3 342.2C681.5 341.7 679.6 341.9 678 342.7C679 344.2 680.5 345.3 682.4 345.8Z" stroke="white" stroke-miterlimit="10"/>
<path d="M682.4 346.9C680.5 347.4 679 348.6 678 350C679.6 350.8 681.5 351 683.3 350.5C685.2 350 686.7 348.9 687.7 347.4C686.1 346.7 684.2 346.4 682.4 346.9Z" stroke="white" stroke-miterlimit="10"/>
<path d="M700.7 346.9C698.9 346.4 697 346.7 695.4 347.4C696.4 348.9 697.9 350 699.8 350.5C701.6 351 703.5 350.8 705.1 350C704.1 348.6 702.6 347.4 700.7 346.9Z" stroke="white" stroke-miterlimit="10"/>
<path d="M700.7 345.8C702.6 345.3 704.1 344.2 705.1 342.7C703.5 342 701.6 341.7 699.8 342.2C697.9 342.7 696.4 343.8 695.4 345.3C697 346.1 698.9 346.3 700.7 345.8Z" stroke="white" stroke-miterlimit="10"/>
<path d="M687.4 354.4C686.9 356.3 687.1 358.1 687.9 359.7C689.3 358.7 690.5 357.2 691 355.4C691.5 353.5 691.3 351.7 690.5 350.1C689 351.1 687.9 352.6 687.4 354.4Z" stroke="white" stroke-miterlimit="10"/>
<path d="M692.6 350.1C691.8 351.7 691.6 353.5 692.1 355.4C692.6 357.2 693.7 358.7 695.2 359.7C696 358.1 696.2 356.3 695.7 354.4C695.2 352.6 694.1 351.1 692.6 350.1Z" stroke="white" stroke-miterlimit="10"/>
<path d="M695.7 338.3C696.2 336.5 696 334.6 695.2 333C693.7 334 692.6 335.5 692.1 337.4C691.6 339.2 691.8 341.1 692.6 342.7C694.1 341.7 695.2 340.2 695.7 338.3Z" stroke="white" stroke-miterlimit="10"/>
<path d="M687.9 333C687.1 334.6 686.9 336.5 687.4 338.3C687.9 340.2 689 341.7 690.5 342.7C691.3 341.1 691.5 339.2 691 337.4C690.5 335.5 689.4 334 687.9 333Z" stroke="white" stroke-miterlimit="10"/>
<path d="M682.4 345.8C684.2 346.3 686.1 346.1 687.7 345.3C686.7 343.8 685.2 342.7 683.3 342.2C681.5 341.7 679.6 341.9 678 342.7C679 344.2 680.5 345.3 682.4 345.8Z" stroke="white" stroke-miterlimit="10"/>
<path d="M682.4 346.9C680.5 347.4 679 348.6 678 350C679.6 350.8 681.5 351 683.3 350.5C685.2 350 686.7 348.9 687.7 347.4C686.1 346.7 684.2 346.4 682.4 346.9Z" stroke="white" stroke-miterlimit="10"/>
<path d="M700.7 346.9C698.9 346.4 697 346.7 695.4 347.4C696.4 348.9 697.9 350 699.8 350.5C701.6 351 703.5 350.8 705.1 350C704.1 348.6 702.6 347.4 700.7 346.9Z" stroke="white" stroke-miterlimit="10"/>
<path d="M700.7 345.8C702.6 345.3 704.1 344.2 705.1 342.7C703.5 342 701.6 341.7 699.8 342.2C697.9 342.7 696.4 343.8 695.4 345.3C697 346.1 698.9 346.3 700.7 345.8Z" stroke="white" stroke-miterlimit="10"/>
<path d="M688.8 341.9C689.5 342.7 689.7 343.8 689.8 344.7C688.9 344.7 687.7 344.4 687 343.7C686.3 343 686 341.9 686 340.9C686.9 341 688.1 341.2 688.8 341.9Z" stroke="white" stroke-miterlimit="10"/>
<path d="M694.3 341.9C693.6 342.7 693.3 343.8 693.3 344.7C694.2 344.7 695.4 344.4 696.1 343.7C696.8 343 697.1 341.9 697.1 340.9C696.2 341 695 341.2 694.3 341.9Z" stroke="white" stroke-miterlimit="10"/>
<path d="M694.3 350.8C693.6 350.1 693.3 349 693.3 348C694.2 348.1 695.4 348.3 696.1 349C696.8 349.8 697.1 350.9 697.1 351.8C696.2 351.8 695 351.6 694.3 350.8Z" stroke="white" stroke-miterlimit="10"/>
<path d="M688.8 350.8C689.5 350.1 689.7 349 689.8 348C688.9 348.1 687.7 348.3 687 349C686.3 349.8 686 350.9 686 351.8C686.9 351.8 688.1 351.6 688.8 350.8Z" stroke="white" stroke-miterlimit="10"/>
</g>
<g opacity="0.4">
<path d="M942.4 128.5C941.9 130.3 942.1 132.2 942.9 133.8C944.4 132.8 945.5 131.3 946 129.4C946.5 127.6 946.3 125.7 945.5 124.1C944 125.1 942.9 126.6 942.4 128.5Z" stroke="white" stroke-miterlimit="10"/>
<path d="M947.6 124.1C946.9 125.7 946.6 127.6 947.1 129.4C947.6 131.3 948.8 132.8 950.2 133.8C951 132.2 951.2 130.3 950.7 128.5C950.2 126.6 949.1 125.1 947.6 124.1Z" stroke="white" stroke-miterlimit="10"/>
<path d="M950.7 112.4C951.2 110.5 951 108.6 950.2 107C948.8 108 947.6 109.6 947.1 111.4C946.6 113.3 946.9 115.1 947.6 116.7C949.1 115.7 950.2 114.2 950.7 112.4Z" stroke="white" stroke-miterlimit="10"/>
<path d="M942.9 107C942.1 108.6 941.9 110.5 942.4 112.4C942.9 114.2 944 115.7 945.5 116.7C946.3 115.1 946.5 113.3 946 111.4C945.5 109.6 944.4 108 942.9 107Z" stroke="white" stroke-miterlimit="10"/>
<path d="M937.4 119.9C939.2 120.4 941.1 120.1 942.7 119.4C941.7 117.9 940.2 116.8 938.3 116.3C936.5 115.8 934.6 116 933 116.8C934 118.2 935.5 119.4 937.4 119.9Z" stroke="white" stroke-miterlimit="10"/>
<path d="M937.4 121C935.5 121.5 934 122.6 933 124.1C934.6 124.8 936.5 125.1 938.3 124.6C940.2 124.1 941.7 122.9 942.7 121.5C941.1 120.7 939.2 120.5 937.4 121Z" stroke="white" stroke-miterlimit="10"/>
<path d="M955.8 121C953.9 120.5 952 120.7 950.4 121.5C951.4 122.9 952.9 124.1 954.8 124.6C956.6 125.1 958.5 124.8 960.1 124.1C959.1 122.6 957.6 121.5 955.8 121Z" stroke="white" stroke-miterlimit="10"/>
<path d="M955.8 119.9C957.6 119.4 959.1 118.2 960.1 116.8C958.5 116 956.6 115.8 954.8 116.3C952.9 116.8 951.4 117.9 950.4 119.4C952 120.1 953.9 120.4 955.8 119.9Z" stroke="white" stroke-miterlimit="10"/>
<path d="M942.4 128.5C941.9 130.3 942.1 132.2 942.9 133.8C944.4 132.8 945.5 131.3 946 129.4C946.5 127.6 946.3 125.7 945.5 124.1C944 125.1 942.9 126.6 942.4 128.5Z" stroke="white" stroke-miterlimit="10"/>
<path d="M947.6 124.1C946.9 125.7 946.6 127.6 947.1 129.4C947.6 131.3 948.8 132.8 950.2 133.8C951 132.2 951.2 130.3 950.7 128.5C950.2 126.6 949.1 125.1 947.6 124.1Z" stroke="white" stroke-miterlimit="10"/>
<path d="M950.7 112.4C951.2 110.5 951 108.6 950.2 107C948.8 108 947.6 109.6 947.1 111.4C946.6 113.3 946.9 115.1 947.6 116.7C949.1 115.7 950.2 114.2 950.7 112.4Z" stroke="white" stroke-miterlimit="10"/>
<path d="M942.9 107C942.1 108.6 941.9 110.5 942.4 112.4C942.9 114.2 944 115.7 945.5 116.7C946.3 115.1 946.5 113.3 946 111.4C945.5 109.6 944.4 108 942.9 107Z" stroke="white" stroke-miterlimit="10"/>
<path d="M937.4 119.9C939.2 120.4 941.1 120.1 942.7 119.4C941.7 117.9 940.2 116.8 938.3 116.3C936.5 115.8 934.6 116 933 116.8C934 118.2 935.5 119.4 937.4 119.9Z" stroke="white" stroke-miterlimit="10"/>
<path d="M937.4 121C935.5 121.5 934 122.6 933 124.1C934.6 124.8 936.5 125.1 938.3 124.6C940.2 124.1 941.7 122.9 942.7 121.5C941.1 120.7 939.2 120.5 937.4 121Z" stroke="white" stroke-miterlimit="10"/>
<path d="M955.8 121C953.9 120.5 952 120.7 950.4 121.5C951.4 122.9 952.9 124.1 954.8 124.6C956.6 125.1 958.5 124.8 960.1 124.1C959.1 122.6 957.6 121.5 955.8 121Z" stroke="white" stroke-miterlimit="10"/>
<path d="M955.8 119.9C957.6 119.4 959.1 118.2 960.1 116.8C958.5 116 956.6 115.8 954.8 116.3C952.9 116.8 951.4 117.9 950.4 119.4C952 120.1 953.9 120.4 955.8 119.9Z" stroke="white" stroke-miterlimit="10"/>
<path d="M943.8 116C944.5 116.7 944.8 117.8 944.8 118.8C943.9 118.7 942.7 118.5 942 117.8C941.3 117 941.1 115.9 941 114.9C941.9 115 943.1 115.2 943.8 116Z" stroke="white" stroke-miterlimit="10"/>
<path d="M949.3 116C948.6 116.7 948.4 117.8 948.3 118.8C949.3 118.7 950.4 118.5 951.1 117.8C951.9 117 952.1 115.9 952.2 114.9C951.2 115 950.1 115.2 949.3 116Z" stroke="white" stroke-miterlimit="10"/>
<path d="M949.3 124.9C948.6 124.1 948.4 123 948.3 122.1C949.3 122.1 950.4 122.3 951.1 123.1C951.9 123.8 952.1 124.9 952.2 125.9C951.2 125.8 950.1 125.6 949.3 124.9Z" stroke="white" stroke-miterlimit="10"/>
<path d="M943.8 124.9C944.5 124.1 944.8 123 944.8 122.1C943.9 122.1 942.7 122.3 942 123.1C941.3 123.8 941.1 124.9 941 125.9C941.9 125.8 943.1 125.6 943.8 124.9Z" stroke="white" stroke-miterlimit="10"/>
</g>
<g opacity="0.4">
<path d="M417.4 326.8C416.8 329.1 417.1 331.5 418 333.5C419.8 332.2 421.2 330.3 421.8 328C422.4 325.7 422.2 323.4 421.2 321.4C419.4 322.6 418 324.5 417.4 326.8Z" stroke="white" stroke-miterlimit="10"/>
<path d="M423.8 321.4C422.8 323.4 422.6 325.7 423.2 328C423.8 330.3 425.2 332.2 427 333.5C427.9 331.5 428.2 329.1 427.6 326.8C427 324.5 425.6 322.6 423.8 321.4Z" stroke="white" stroke-miterlimit="10"/>
<path d="M427.6 306.7C428.2 304.4 427.9 302 427 300C425.2 301.3 423.8 303.2 423.2 305.5C422.6 307.8 422.8 310.2 423.8 312.1C425.6 310.9 427 309 427.6 306.7Z" stroke="white" stroke-miterlimit="10"/>
<path d="M418 300C417.1 302 416.8 304.4 417.4 306.7C418 309 419.4 310.9 421.2 312.1C422.2 310.2 422.4 307.8 421.8 305.5C421.2 303.2 419.8 301.3 418 300Z" stroke="white" stroke-miterlimit="10"/>
<path d="M411.3 316.1C413.6 316.7 415.9 316.4 417.8 315.4C416.6 313.6 414.8 312.2 412.5 311.6C410.2 310.9 407.9 311.2 406 312.2C407.2 314 409 315.4 411.3 316.1Z" stroke="white" stroke-miterlimit="10"/>
<path d="M411.3 317.4C409 318.1 407.2 319.5 406 321.3C407.9 322.3 410.2 322.6 412.5 321.9C414.8 321.3 416.6 319.9 417.8 318.1C415.9 317.1 413.6 316.8 411.3 317.4Z" stroke="white" stroke-miterlimit="10"/>
<path d="M433.7 317.4C431.4 316.8 429.1 317.1 427.2 318.1C428.4 319.9 430.2 321.3 432.5 321.9C434.8 322.6 437.1 322.3 439 321.3C437.8 319.5 436 318.1 433.7 317.4Z" stroke="white" stroke-miterlimit="10"/>
<path d="M433.7 316.1C436 315.4 437.8 314 439 312.2C437.1 311.2 434.8 310.9 432.5 311.6C430.2 312.2 428.4 313.6 427.2 315.4C429.1 316.4 431.4 316.7 433.7 316.1Z" stroke="white" stroke-miterlimit="10"/>
<path d="M417.4 326.8C416.8 329.1 417.1 331.5 418 333.5C419.8 332.2 421.2 330.3 421.8 328C422.4 325.7 422.2 323.4 421.2 321.4C419.4 322.6 418 324.5 417.4 326.8Z" stroke="white" stroke-miterlimit="10"/>
<path d="M423.8 321.4C422.8 323.4 422.6 325.7 423.2 328C423.8 330.3 425.2 332.2 427 333.5C427.9 331.5 428.2 329.1 427.6 326.8C427 324.5 425.6 322.6 423.8 321.4Z" stroke="white" stroke-miterlimit="10"/>
<path d="M427.6 306.7C428.2 304.4 427.9 302 427 300C425.2 301.3 423.8 303.2 423.2 305.5C422.6 307.8 422.8 310.2 423.8 312.1C425.6 310.9 427 309 427.6 306.7Z" stroke="white" stroke-miterlimit="10"/>
<path d="M418 300C417.1 302 416.8 304.4 417.4 306.7C418 309 419.4 310.9 421.2 312.1C422.2 310.2 422.4 307.8 421.8 305.5C421.2 303.2 419.8 301.3 418 300Z" stroke="white" stroke-miterlimit="10"/>
<path d="M411.3 316.1C413.6 316.7 415.9 316.4 417.8 315.4C416.6 313.6 414.8 312.2 412.5 311.6C410.2 310.9 407.9 311.2 406 312.2C407.2 314 409 315.4 411.3 316.1Z" stroke="white" stroke-miterlimit="10"/>
<path d="M411.3 317.4C409 318.1 407.2 319.5 406 321.3C407.9 322.3 410.2 322.6 412.5 321.9C414.8 321.3 416.6 319.9 417.8 318.1C415.9 317.1 413.6 316.8 411.3 317.4Z" stroke="white" stroke-miterlimit="10"/>
<path d="M433.7 317.4C431.4 316.8 429.1 317.1 427.2 318.1C428.4 319.9 430.2 321.3 432.5 321.9C434.8 322.6 437.1 322.3 439 321.3C437.8 319.5 436 318.1 433.7 317.4Z" stroke="white" stroke-miterlimit="10"/>
<path d="M433.7 316.1C436 315.4 437.8 314 439 312.2C437.1 311.2 434.8 310.9 432.5 311.6C430.2 312.2 428.4 313.6 427.2 315.4C429.1 316.4 431.4 316.7 433.7 316.1Z" stroke="white" stroke-miterlimit="10"/>
<path d="M419.1 311.2C420 312.1 420.3 313.5 420.4 314.7C419.2 314.6 417.8 314.3 416.9 313.4C416.1 312.5 415.8 311.1 415.7 309.9C416.9 310 418.3 310.3 419.1 311.2Z" stroke="white" stroke-miterlimit="10"/>
<path d="M425.9 311.2C425 312.1 424.7 313.5 424.6 314.7C425.8 314.6 427.2 314.3 428.1 313.4C428.9 312.5 429.2 311.1 429.3 309.9C428.1 310 426.7 310.3 425.9 311.2Z" stroke="white" stroke-miterlimit="10"/>
<path d="M425.9 322.3C425 321.4 424.7 320 424.6 318.8C425.8 318.9 427.2 319.2 428.1 320.1C428.9 321 429.2 322.4 429.3 323.6C428.1 323.5 426.7 323.2 425.9 322.3Z" stroke="white" stroke-miterlimit="10"/>
<path d="M419.1 322.3C420 321.4 420.3 320 420.4 318.8C419.2 318.9 417.8 319.2 416.9 320.1C416.1 321 415.8 322.4 415.7 323.6C416.9 323.5 418.3 323.2 419.1 322.3Z" stroke="white" stroke-miterlimit="10"/>
</g>
<g opacity="0.4">
<path d="M646.35 293.029C645.55 296.129 645.85 299.229 647.15 301.829C649.65 300.229 651.55 297.729 652.35 294.629C653.15 291.629 652.75 288.529 651.45 285.829C649.05 287.529 647.15 290.029 646.35 293.029Z" stroke="white" stroke-miterlimit="10"/>
<path d="M655.05 285.829C653.75 288.529 653.35 291.629 654.15 294.629C654.95 297.729 656.85 300.229 659.35 301.829C660.55 299.229 660.95 296.129 660.15 293.029C659.35 290.029 657.45 287.529 655.05 285.829Z" stroke="white" stroke-miterlimit="10"/>
<path d="M660.15 266.429C660.95 263.429 660.55 260.329 659.35 257.629C656.85 259.329 654.95 261.829 654.15 264.829C653.35 267.929 653.75 271.029 655.05 273.629C657.45 272.029 659.35 269.529 660.15 266.429Z" stroke="white" stroke-miterlimit="10"/>
<path d="M647.15 257.629C645.85 260.329 645.55 263.429 646.35 266.429C647.15 269.529 649.05 272.029 651.45 273.629C652.75 271.029 653.15 267.929 652.35 264.829C651.55 261.829 649.65 259.329 647.15 257.629Z" stroke="white" stroke-miterlimit="10"/>
<path d="M638.051 278.829C641.151 279.629 644.251 279.329 646.951 278.029C645.251 275.529 642.751 273.729 639.651 272.829C636.551 272.029 633.451 272.429 630.851 273.729C632.451 276.129 634.951 278.029 638.051 278.829Z" stroke="white" stroke-miterlimit="10"/>
<path d="M638.051 280.629C634.951 281.529 632.451 283.329 630.851 285.829C633.451 287.029 636.551 287.429 639.651 286.629C642.751 285.829 645.251 283.929 646.951 281.529C644.251 280.229 641.151 279.829 638.051 280.629Z" stroke="white" stroke-miterlimit="10"/>
<path d="M668.451 280.629C665.351 279.829 662.251 280.229 659.551 281.529C661.251 283.929 663.751 285.829 666.851 286.629C669.951 287.429 673.051 287.029 675.651 285.829C674.051 283.329 671.551 281.529 668.451 280.629Z" stroke="white" stroke-miterlimit="10"/>
<path d="M668.451 278.829C671.551 278.029 674.051 276.129 675.651 273.729C673.051 272.429 669.951 272.029 666.851 272.929C663.751 273.729 661.251 275.529 659.551 278.029C662.251 279.329 665.351 279.629 668.451 278.829Z" stroke="white" stroke-miterlimit="10"/>
<path d="M646.35 293.029C645.55 296.129 645.85 299.229 647.15 301.829C649.65 300.229 651.55 297.729 652.35 294.629C653.15 291.629 652.75 288.529 651.45 285.829C649.05 287.529 647.15 290.029 646.35 293.029Z" stroke="white" stroke-miterlimit="10"/>
<path d="M655.05 285.829C653.75 288.529 653.35 291.629 654.15 294.629C654.95 297.729 656.85 300.229 659.35 301.829C660.55 299.229 660.95 296.129 660.15 293.029C659.35 290.029 657.45 287.529 655.05 285.829Z" stroke="white" stroke-miterlimit="10"/>
<path d="M660.15 266.429C660.95 263.429 660.55 260.329 659.35 257.629C656.85 259.329 654.95 261.829 654.15 264.829C653.35 267.929 653.75 271.029 655.05 273.629C657.45 272.029 659.35 269.529 660.15 266.429Z" stroke="white" stroke-miterlimit="10"/>
<path d="M647.15 257.629C645.85 260.329 645.55 263.429 646.35 266.429C647.15 269.529 649.05 272.029 651.45 273.629C652.75 271.029 653.15 267.929 652.35 264.829C651.55 261.829 649.65 259.329 647.15 257.629Z" stroke="white" stroke-miterlimit="10"/>
<path d="M638.051 278.829C641.151 279.629 644.251 279.329 646.951 278.029C645.251 275.529 642.751 273.729 639.651 272.829C636.551 272.029 633.451 272.429 630.851 273.729C632.451 276.129 634.951 278.029 638.051 278.829Z" stroke="white" stroke-miterlimit="10"/>
<path d="M638.051 280.629C634.951 281.529 632.451 283.329 630.851 285.829C633.451 287.029 636.551 287.429 639.651 286.629C642.751 285.829 645.251 283.929 646.951 281.529C644.251 280.229 641.151 279.829 638.051 280.629Z" stroke="white" stroke-miterlimit="10"/>
<path d="M668.451 280.629C665.351 279.829 662.251 280.229 659.551 281.529C661.251 283.929 663.751 285.829 666.851 286.629C669.951 287.429 673.051 287.029 675.651 285.829C674.051 283.329 671.551 281.529 668.451 280.629Z" stroke="white" stroke-miterlimit="10"/>
<path d="M668.451 278.829C671.551 278.029 674.051 276.129 675.651 273.729C673.051 272.429 669.951 272.029 666.851 272.929C663.751 273.729 661.251 275.529 659.551 278.029C662.251 279.329 665.351 279.629 668.451 278.829Z" stroke="white" stroke-miterlimit="10"/>
<path d="M648.651 272.429C649.951 273.629 650.251 275.429 650.351 277.029C648.851 276.929 646.951 276.529 645.751 275.329C644.551 274.129 644.151 272.329 644.051 270.729C645.551 270.829 647.451 271.129 648.651 272.429Z" stroke="white" stroke-miterlimit="10"/>
<path d="M657.751 272.429C656.551 273.629 656.251 275.429 656.051 277.029C657.651 276.929 659.551 276.529 660.751 275.329C661.951 274.129 662.351 272.329 662.451 270.729C660.851 270.829 659.051 271.129 657.751 272.429Z" stroke="white" stroke-miterlimit="10"/>
<path d="M657.751 287.129C656.551 285.929 656.251 284.029 656.051 282.429C657.651 282.629 659.551 282.929 660.751 284.129C661.951 285.329 662.351 287.229 662.451 288.829C660.851 288.729 659.051 288.329 657.751 287.129Z" stroke="white" stroke-miterlimit="10"/>
<path d="M648.651 287.129C649.951 285.929 650.251 284.029 650.351 282.429C648.851 282.629 646.951 282.929 645.751 284.129C644.551 285.329 644.151 287.229 644.051 288.829C645.551 288.729 647.451 288.329 648.651 287.129Z" stroke="white" stroke-miterlimit="10"/>
</g>
<g opacity="0.4">
<path d="M727.9 183.84C726.7 188.396 727.2 193.052 729.1 197C732.7 194.469 735.5 190.825 736.7 186.27C737.9 181.613 737.4 177.058 735.5 173.11C731.9 175.54 729.1 179.285 727.9 183.84Z" stroke="white" stroke-miterlimit="10"/>
<path d="M740.6 173.11C738.8 177.058 738.2 181.613 739.4 186.27C740.6 190.825 743.4 194.469 747 197C748.9 193.052 749.5 188.396 748.2 183.84C747 179.285 744.2 175.54 740.6 173.11Z" stroke="white" stroke-miterlimit="10"/>
<path d="M748.2 144.16C749.5 139.604 748.9 134.948 747 131C743.4 133.531 740.6 137.175 739.4 141.831C738.2 146.386 738.8 150.942 740.7 154.89C744.2 152.46 747 148.715 748.2 144.16Z" stroke="white" stroke-miterlimit="10"/>
<path d="M729.1 131C727.2 134.948 726.7 139.604 727.9 144.16C729.1 148.715 731.9 152.46 735.5 154.89C737.4 150.942 737.9 146.386 736.7 141.831C735.5 137.175 732.7 133.531 729.1 131Z" stroke="white" stroke-miterlimit="10"/>
<path d="M715.7 162.684C720.2 163.899 724.8 163.291 728.7 161.368C726.3 157.724 722.6 154.991 718 153.776C713.5 152.561 708.9 153.067 705 154.991C707.4 158.635 711.1 161.368 715.7 162.684Z" stroke="white" stroke-miterlimit="10"/>
<path d="M715.7 165.316C711.1 166.531 707.4 169.365 705 173.009C708.9 174.933 713.5 175.439 718 174.224C722.6 173.009 726.3 170.175 728.7 166.632C724.8 164.709 720.2 164.101 715.7 165.316Z" stroke="white" stroke-miterlimit="10"/>
<path d="M760.4 165.316C755.9 164.101 751.3 164.709 747.4 166.632C749.8 170.175 753.5 173.009 758.1 174.224C762.6 175.439 767.2 174.933 771.1 173.009C768.7 169.365 765 166.632 760.4 165.316Z" stroke="white" stroke-miterlimit="10"/>
<path d="M760.4 162.684C765 161.368 768.7 158.635 771.1 154.991C767.2 153.067 762.6 152.561 758.1 153.776C753.5 154.991 749.8 157.724 747.4 161.368C751.3 163.291 755.9 163.899 760.4 162.684Z" stroke="white" stroke-miterlimit="10"/>
<path d="M727.9 183.84C726.7 188.396 727.2 193.052 729.1 197C732.7 194.469 735.5 190.825 736.7 186.27C737.9 181.613 737.4 177.058 735.5 173.11C731.9 175.54 729.1 179.285 727.9 183.84Z" stroke="white" stroke-miterlimit="10"/>
<path d="M740.6 173.11C738.8 177.058 738.2 181.613 739.4 186.27C740.6 190.825 743.4 194.469 747 197C748.9 193.052 749.5 188.396 748.2 183.84C747 179.285 744.2 175.54 740.6 173.11Z" stroke="white" stroke-miterlimit="10"/>
<path d="M748.2 144.16C749.5 139.604 748.9 134.948 747 131C743.4 133.531 740.6 137.175 739.4 141.831C738.2 146.386 738.8 150.942 740.7 154.89C744.2 152.46 747 148.715 748.2 144.16Z" stroke="white" stroke-miterlimit="10"/>
<path d="M729.1 131C727.2 134.948 726.7 139.604 727.9 144.16C729.1 148.715 731.9 152.46 735.5 154.89C737.4 150.942 737.9 146.386 736.7 141.831C735.5 137.175 732.7 133.531 729.1 131Z" stroke="white" stroke-miterlimit="10"/>
<path d="M715.7 162.684C720.2 163.899 724.8 163.291 728.7 161.368C726.3 157.724 722.6 154.991 718 153.776C713.5 152.561 708.9 153.067 705 154.991C707.4 158.635 711.1 161.368 715.7 162.684Z" stroke="white" stroke-miterlimit="10"/>
<path d="M715.7 165.316C711.1 166.531 707.4 169.365 705 173.009C708.9 174.933 713.5 175.439 718 174.224C722.6 173.009 726.3 170.175 728.7 166.632C724.8 164.709 720.2 164.101 715.7 165.316Z" stroke="white" stroke-miterlimit="10"/>
<path d="M760.4 165.316C755.9 164.101 751.3 164.709 747.4 166.632C749.8 170.175 753.5 173.009 758.1 174.224C762.6 175.439 767.2 174.933 771.1 173.009C768.7 169.365 765 166.632 760.4 165.316Z" stroke="white" stroke-miterlimit="10"/>
<path d="M760.4 162.684C765 161.368 768.7 158.635 771.1 154.991C767.2 153.067 762.6 152.561 758.1 153.776C753.5 154.991 749.8 157.724 747.4 161.368C751.3 163.291 755.9 163.899 760.4 162.684Z" stroke="white" stroke-miterlimit="10"/>
<path d="M731.4 152.966C733.1 154.788 733.7 157.521 733.9 159.951C731.5 159.748 728.7 159.242 727 157.42C725.2 155.598 724.6 152.865 724.5 150.537C726.8 150.638 729.6 151.144 731.4 152.966Z" stroke="white" stroke-miterlimit="10"/>
<path d="M744.8 152.966C743 154.788 742.4 157.521 742.3 159.951C744.6 159.748 747.4 159.242 749.2 157.42C750.9 155.598 751.5 152.865 751.7 150.537C749.3 150.638 746.6 151.144 744.8 152.966Z" stroke="white" stroke-miterlimit="10"/>
<path d="M744.8 174.932C743 173.212 742.4 170.479 742.3 168.049C744.6 168.252 747.4 168.758 749.2 170.58C750.9 172.402 751.5 175.135 751.7 177.463C749.3 177.362 746.5 176.755 744.8 174.932Z" stroke="white" stroke-miterlimit="10"/>
<path d="M731.4 174.932C733.1 173.212 733.7 170.479 733.9 168.049C731.5 168.252 728.7 168.758 727 170.58C725.2 172.402 724.6 175.135 724.5 177.463C726.8 177.362 729.6 176.755 731.4 174.932Z" stroke="white" stroke-miterlimit="10"/>
</g>
<g opacity="0.4">
<path d="M1199.23 151.488C1198.38 154.732 1198.73 158.048 1200.08 160.859C1202.63 159.057 1204.61 156.462 1205.46 153.218C1206.31 149.902 1205.96 146.658 1204.61 143.847C1202.06 145.577 1200.08 148.244 1199.23 151.488Z" stroke="white" stroke-miterlimit="10"/>
<path d="M1208.23 143.847C1206.95 146.658 1206.52 149.902 1207.37 153.218C1208.23 156.462 1210.21 159.057 1212.76 160.859C1214.11 158.048 1214.53 154.732 1213.61 151.488C1212.76 148.244 1210.78 145.577 1208.23 143.847Z" stroke="white" stroke-miterlimit="10"/>
<path d="M1213.61 123.23C1214.53 119.986 1214.11 116.67 1212.76 113.859C1210.21 115.661 1208.23 118.256 1207.37 121.572C1206.52 124.816 1206.95 128.06 1208.3 130.871C1210.78 129.141 1212.76 126.474 1213.61 123.23Z" stroke="white" stroke-miterlimit="10"/>
<path d="M1200.08 113.859C1198.73 116.67 1198.38 119.986 1199.23 123.23C1200.08 126.474 1202.06 129.141 1204.61 130.871C1205.96 128.06 1206.31 124.816 1205.46 121.572C1204.61 118.256 1202.63 115.661 1200.08 113.859Z" stroke="white" stroke-miterlimit="10"/>
<path d="M1190.58 136.422C1193.77 137.287 1197.03 136.854 1199.79 135.484C1198.09 132.889 1195.47 130.943 1192.21 130.078C1189.02 129.213 1185.76 129.573 1183 130.943C1184.7 133.538 1187.32 135.484 1190.58 136.422Z" stroke="white" stroke-miterlimit="10"/>
<path d="M1190.58 138.296C1187.32 139.161 1184.7 141.18 1183 143.775C1185.76 145.144 1189.02 145.505 1192.21 144.64C1195.47 143.775 1198.09 141.756 1199.79 139.233C1197.03 137.864 1193.77 137.431 1190.58 138.296Z" stroke="white" stroke-miterlimit="10"/>
<path d="M1222.26 138.296C1219.07 137.431 1215.81 137.864 1213.04 139.233C1214.74 141.756 1217.37 143.775 1220.63 144.64C1223.81 145.505 1227.07 145.144 1229.84 143.775C1228.14 141.18 1225.52 139.233 1222.26 138.296Z" stroke="white" stroke-miterlimit="10"/>
<path d="M1222.26 136.422C1225.52 135.484 1228.14 133.538 1229.84 130.943C1227.07 129.573 1223.81 129.213 1220.63 130.078C1217.37 130.943 1214.74 132.889 1213.04 135.484C1215.81 136.854 1219.07 137.287 1222.26 136.422Z" stroke="white" stroke-miterlimit="10"/>
<path d="M1199.23 151.488C1198.38 154.732 1198.73 158.048 1200.08 160.859C1202.63 159.057 1204.61 156.462 1205.46 153.218C1206.31 149.902 1205.96 146.658 1204.61 143.847C1202.06 145.577 1200.08 148.244 1199.23 151.488Z" stroke="white" stroke-miterlimit="10"/>
<path d="M1208.23 143.847C1206.95 146.658 1206.52 149.902 1207.37 153.218C1208.23 156.462 1210.21 159.057 1212.76 160.859C1214.11 158.048 1214.53 154.732 1213.61 151.488C1212.76 148.244 1210.78 145.577 1208.23 143.847Z" stroke="white" stroke-miterlimit="10"/>
<path d="M1213.61 123.23C1214.53 119.986 1214.11 116.67 1212.76 113.859C1210.21 115.661 1208.23 118.256 1207.37 121.572C1206.52 124.816 1206.95 128.06 1208.3 130.871C1210.78 129.141 1212.76 126.474 1213.61 123.23Z" stroke="white" stroke-miterlimit="10"/>
<path d="M1200.08 113.859C1198.73 116.67 1198.38 119.986 1199.23 123.23C1200.08 126.474 1202.06 129.141 1204.61 130.871C1205.96 128.06 1206.31 124.816 1205.46 121.572C1204.61 118.256 1202.63 115.661 1200.08 113.859Z" stroke="white" stroke-miterlimit="10"/>
<path d="M1190.58 136.422C1193.77 137.287 1197.03 136.854 1199.79 135.484C1198.09 132.889 1195.47 130.943 1192.21 130.078C1189.02 129.213 1185.76 129.573 1183 130.943C1184.7 133.538 1187.32 135.484 1190.58 136.422Z" stroke="white" stroke-miterlimit="10"/>
<path d="M1190.58 138.296C1187.32 139.161 1184.7 141.18 1183 143.775C1185.76 145.144 1189.02 145.505 1192.21 144.64C1195.47 143.775 1198.09 141.756 1199.79 139.233C1197.03 137.864 1193.77 137.431 1190.58 138.296Z" stroke="white" stroke-miterlimit="10"/>
<path d="M1222.26 138.296C1219.07 137.431 1215.81 137.864 1213.04 139.233C1214.74 141.756 1217.37 143.775 1220.63 144.64C1223.81 145.505 1227.07 145.144 1229.84 143.775C1228.14 141.18 1225.52 139.233 1222.26 138.296Z" stroke="white" stroke-miterlimit="10"/>
<path d="M1222.26 136.422C1225.52 135.484 1228.14 133.538 1229.84 130.943C1227.07 129.573 1223.81 129.213 1220.63 130.078C1217.37 130.943 1214.74 132.889 1213.04 135.484C1215.81 136.854 1219.07 137.287 1222.26 136.422Z" stroke="white" stroke-miterlimit="10"/>
<path d="M1201.71 129.501C1202.91 130.799 1203.34 132.745 1203.48 134.475C1201.78 134.331 1199.79 133.971 1198.59 132.673C1197.31 131.376 1196.89 129.429 1196.82 127.771C1198.45 127.843 1200.43 128.204 1201.71 129.501Z" stroke="white" stroke-miterlimit="10"/>
<path d="M1211.2 129.501C1209.93 130.799 1209.5 132.745 1209.43 134.475C1211.06 134.331 1213.04 133.971 1214.32 132.673C1215.52 131.376 1215.95 129.429 1216.09 127.771C1214.39 127.843 1212.48 128.204 1211.2 129.501Z" stroke="white" stroke-miterlimit="10"/>
<path d="M1211.2 145.144C1209.93 143.919 1209.5 141.972 1209.43 140.242C1211.06 140.387 1213.04 140.747 1214.32 142.045C1215.52 143.342 1215.95 145.288 1216.09 146.946C1214.39 146.874 1212.41 146.442 1211.2 145.144Z" stroke="white" stroke-miterlimit="10"/>
<path d="M1201.71 145.144C1202.91 143.919 1203.34 141.972 1203.48 140.242C1201.78 140.387 1199.79 140.747 1198.59 142.045C1197.31 143.342 1196.89 145.288 1196.82 146.946C1198.45 146.874 1200.43 146.442 1201.71 145.144Z" stroke="white" stroke-miterlimit="10"/>
</g>
</g>
<defs>
<clipPath id="clip0_39_392">
<rect width="1268" height="392" fill="white"/>
</clipPath>
</defs>
</svg>
