<svg width="1268" height="370" viewBox="0 0 1268 370" fill="none" xmlns="http://www.w3.org/2000/svg">
<g clip-path="url(#clip0_39_392)">
<path d="M770.75 54.429C643.75 87.429 534.85 133.829 407.95 166.929C210.65 218.229 -27.7496 218.729 -248.85 193.529V2116.73L1516.85 2116.83V20.8291C1272.45 -15.7709 995.05 -3.87096 770.75 54.429Z" fill="white"/>
<path d="M689.15 120.129C588.15 139.329 501.55 166.429 400.55 185.629C243.75 215.629 54.15 215.929 -121.75 201.229V1322.33H1282.45V100.529C1088.15 79.2289 867.45 86.129 689.15 120.129Z" fill="#283C8E" stroke="#F1F1F2" stroke-miterlimit="10"/>
<g opacity="0.4">
<path d="M983.75 277.629C979.75 292.329 981.55 307.329 987.75 320.029C999.45 312.129 1008.45 300.029 1012.45 285.329C1016.35 270.629 1014.55 255.629 1008.35 242.929C996.65 250.829 987.65 262.829 983.75 277.629Z" stroke="white" stroke-miterlimit="10"/>
<path d="M1025.25 242.929C1019.05 255.629 1017.25 270.629 1021.25 285.329C1025.15 300.029 1034.15 312.129 1045.95 320.029C1052.05 307.329 1053.85 292.329 1049.95 277.629C1045.95 262.829 1036.95 250.829 1025.25 242.929Z" stroke="white" stroke-miterlimit="10"/>
<path d="M1049.95 149.529C1053.85 134.829 1052.05 119.829 1045.95 107.129C1034.15 115.029 1025.15 127.029 1021.25 141.829C1017.25 156.529 1019.05 171.529 1025.25 184.229C1036.95 176.329 1045.95 164.229 1049.95 149.529Z" stroke="white" stroke-miterlimit="10"/>
<path d="M987.75 107.029C981.55 119.829 979.75 134.729 983.75 149.529C987.65 164.229 996.65 176.329 1008.35 184.229C1014.55 171.529 1016.35 156.529 1012.45 141.829C1008.45 127.029 999.45 115.029 987.75 107.029Z" stroke="white" stroke-miterlimit="10"/>
<path d="M944.051 209.229C958.751 213.129 973.651 211.329 986.451 205.129C978.451 193.429 966.451 184.429 951.751 180.429C936.951 176.529 922.051 178.329 909.351 184.429C917.251 196.229 929.251 205.229 944.051 209.229Z" stroke="white" stroke-miterlimit="10"/>
<path d="M944.051 217.929C929.251 221.929 917.251 230.929 909.351 242.629C922.051 248.829 936.951 250.629 951.751 246.629C966.451 242.729 978.451 233.629 986.451 221.929C973.651 215.829 958.751 214.029 944.051 217.929Z" stroke="white" stroke-miterlimit="10"/>
<path d="M1089.55 217.929C1074.85 214.029 1059.95 215.829 1047.15 222.029C1055.15 233.629 1067.15 242.729 1081.85 246.629C1096.65 250.629 1111.55 248.829 1124.35 242.629C1116.35 230.929 1104.35 221.929 1089.55 217.929Z" stroke="white" stroke-miterlimit="10"/>
<path d="M1089.55 209.229C1104.35 205.229 1116.35 196.229 1124.35 184.529C1111.55 178.329 1096.65 176.529 1081.95 180.429C1067.15 184.429 1055.15 193.429 1047.15 205.129C1059.95 211.329 1074.85 213.129 1089.55 209.229Z" stroke="white" stroke-miterlimit="10"/>
<path d="M983.75 277.629C979.75 292.329 981.55 307.329 987.75 320.029C999.45 312.129 1008.45 300.029 1012.45 285.329C1016.35 270.629 1014.55 255.629 1008.35 242.929C996.65 250.829 987.65 262.829 983.75 277.629Z" stroke="white" stroke-miterlimit="10"/>
<path d="M1025.25 242.929C1019.05 255.629 1017.25 270.629 1021.25 285.329C1025.15 300.029 1034.15 312.129 1045.95 320.029C1052.05 307.329 1053.85 292.329 1049.95 277.629C1045.95 262.829 1036.95 250.829 1025.25 242.929Z" stroke="white" stroke-miterlimit="10"/>
<path d="M1049.95 149.529C1053.85 134.829 1052.05 119.829 1045.95 107.129C1034.15 115.029 1025.15 127.029 1021.25 141.829C1017.25 156.529 1019.05 171.529 1025.25 184.229C1036.95 176.329 1045.95 164.229 1049.95 149.529Z" stroke="white" stroke-miterlimit="10"/>
<path d="M987.75 107.029C981.55 119.829 979.75 134.729 983.75 149.529C987.65 164.229 996.65 176.329 1008.35 184.229C1014.55 171.529 1016.35 156.529 1012.45 141.829C1008.45 127.029 999.45 115.029 987.75 107.029Z" stroke="white" stroke-miterlimit="10"/>
<path d="M944.051 209.229C958.751 213.129 973.651 211.329 986.451 205.129C978.451 193.429 966.451 184.429 951.751 180.429C936.951 176.529 922.051 178.329 909.351 184.429C917.251 196.229 929.251 205.229 944.051 209.229Z" stroke="white" stroke-miterlimit="10"/>
<path d="M944.051 217.929C929.251 221.929 917.251 230.929 909.351 242.629C922.051 248.829 936.951 250.629 951.751 246.629C966.451 242.729 978.451 233.629 986.451 221.929C973.651 215.829 958.751 214.029 944.051 217.929Z" stroke="white" stroke-miterlimit="10"/>
<path d="M1089.55 217.929C1074.85 214.029 1059.95 215.829 1047.15 222.029C1055.15 233.629 1067.15 242.729 1081.85 246.629C1096.65 250.629 1111.55 248.829 1124.35 242.629C1116.35 230.929 1104.35 221.929 1089.55 217.929Z" stroke="white" stroke-miterlimit="10"/>
<path d="M1089.55 209.229C1104.35 205.229 1116.35 196.229 1124.35 184.529C1111.55 178.329 1096.65 176.529 1081.95 180.429C1067.15 184.429 1055.15 193.429 1047.15 205.129C1059.95 211.329 1074.85 213.129 1089.55 209.229Z" stroke="white" stroke-miterlimit="10"/>
<path d="M995.051 178.129C1000.85 183.929 1002.65 192.729 1003.15 200.429C995.551 199.929 986.551 198.229 980.751 192.329C974.951 186.429 973.151 177.629 972.551 169.929C980.151 170.529 989.151 172.229 995.051 178.129Z" stroke="white" stroke-miterlimit="10"/>
<path d="M1038.65 178.129C1032.85 183.929 1031.05 192.729 1030.45 200.429C1038.05 199.929 1047.15 198.229 1052.95 192.329C1058.75 186.429 1060.55 177.629 1061.05 169.929C1053.45 170.529 1044.45 172.229 1038.65 178.129Z" stroke="white" stroke-miterlimit="10"/>
<path d="M1038.65 249.029C1032.85 243.129 1031.05 234.329 1030.45 226.629C1038.05 227.229 1047.15 228.929 1052.95 234.729C1058.75 240.629 1060.55 249.529 1061.05 257.129C1053.45 256.629 1044.45 254.929 1038.65 249.029Z" stroke="white" stroke-miterlimit="10"/>
<path d="M995.051 249.029C1000.85 243.129 1002.55 234.329 1003.15 226.629C995.551 227.229 986.551 228.929 980.651 234.729C974.951 240.629 973.151 249.529 972.551 257.129C980.151 256.629 989.151 254.929 995.051 249.029Z" stroke="white" stroke-miterlimit="10"/>
</g>
<g opacity="0.4">
<path d="M850.851 352.729C852.851 345.329 851.851 337.729 848.751 331.229C842.851 335.329 838.251 341.429 836.251 348.829C834.251 356.329 835.151 363.929 838.251 370.329C844.251 366.329 848.851 360.229 850.851 352.729Z" stroke="white" stroke-miterlimit="10"/>
<path d="M819.251 331.229C816.151 337.729 815.251 345.329 817.251 352.729C819.251 360.229 823.851 366.329 829.751 370.329C832.851 363.929 833.751 356.329 831.751 348.829C829.751 341.429 825.251 335.329 819.251 331.229Z" stroke="white" stroke-miterlimit="10"/>
<path d="M797.151 383.029C804.551 385.029 812.151 384.129 818.651 380.929C814.551 375.029 808.451 370.429 801.051 368.429C793.551 366.429 785.951 367.329 779.551 370.529C783.551 376.429 789.651 381.029 797.151 383.029Z" stroke="white" stroke-miterlimit="10"/>
<path d="M870.951 383.029C878.351 381.029 884.451 376.429 888.551 370.529C882.051 367.329 874.451 366.429 867.051 368.429C859.551 370.429 853.451 375.029 849.451 380.929C855.851 384.129 863.451 385.029 870.951 383.029Z" stroke="white" stroke-miterlimit="10"/>
<path d="M850.851 352.729C852.851 345.329 851.851 337.729 848.751 331.229C842.851 335.329 838.251 341.429 836.251 348.829C834.251 356.329 835.151 363.929 838.251 370.329C844.251 366.329 848.851 360.229 850.851 352.729Z" stroke="white" stroke-miterlimit="10"/>
<path d="M819.251 331.229C816.151 337.729 815.251 345.329 817.251 352.729C819.251 360.229 823.851 366.329 829.751 370.329C832.851 363.929 833.751 356.329 831.751 348.829C829.751 341.429 825.251 335.329 819.251 331.229Z" stroke="white" stroke-miterlimit="10"/>
<path d="M797.151 383.029C804.551 385.029 812.151 384.129 818.651 380.929C814.551 375.029 808.451 370.429 801.051 368.429C793.551 366.429 785.951 367.329 779.551 370.529C783.551 376.429 789.651 381.029 797.151 383.029Z" stroke="white" stroke-miterlimit="10"/>
<path d="M870.951 383.029C878.351 381.029 884.451 376.429 888.551 370.529C882.051 367.329 874.451 366.429 867.051 368.429C859.551 370.429 853.451 375.029 849.451 380.929C855.851 384.129 863.451 385.029 870.951 383.029Z" stroke="white" stroke-miterlimit="10"/>
<path d="M822.951 367.229C825.951 370.229 826.851 374.729 827.051 378.629C823.251 378.329 818.651 377.429 815.751 374.429C812.751 371.529 811.851 367.029 811.551 363.129C815.451 363.429 820.051 364.229 822.951 367.229Z" stroke="white" stroke-miterlimit="10"/>
<path d="M845.051 367.229C842.151 370.229 841.251 374.729 840.951 378.629C844.851 378.329 849.351 377.429 852.351 374.429C855.251 371.529 856.151 367.029 856.451 363.129C852.651 363.429 848.051 364.229 845.051 367.229Z" stroke="white" stroke-miterlimit="10"/>
</g>
<g opacity="0.4">
<path d="M831.451 246.329C830.251 250.829 830.751 255.429 832.651 259.329C836.251 256.829 839.051 253.229 840.251 248.729C841.451 244.129 840.951 239.629 839.051 235.729C835.451 238.129 832.651 241.829 831.451 246.329Z" stroke="white" stroke-miterlimit="10"/>
<path d="M844.15 235.729C842.35 239.629 841.75 244.129 842.95 248.729C844.15 253.229 846.951 256.829 850.551 259.329C852.451 255.429 853.05 250.829 851.75 246.329C850.55 241.829 847.75 238.129 844.15 235.729Z" stroke="white" stroke-miterlimit="10"/>
<path d="M851.751 207.129C853.051 202.629 852.451 198.029 850.551 194.129C846.951 196.629 844.151 200.229 842.951 204.829C841.751 209.329 842.351 213.829 844.251 217.729C847.751 215.329 850.551 211.629 851.751 207.129Z" stroke="white" stroke-miterlimit="10"/>
<path d="M832.651 194.129C830.751 198.029 830.251 202.629 831.451 207.129C832.651 211.629 835.451 215.329 839.051 217.729C840.951 213.829 841.451 209.329 840.251 204.829C839.051 200.229 836.251 196.629 832.651 194.129Z" stroke="white" stroke-miterlimit="10"/>
<path d="M819.251 225.429C823.751 226.629 828.351 226.029 832.251 224.129C829.851 220.529 826.151 217.829 821.551 216.629C817.051 215.429 812.451 215.929 808.551 217.829C810.951 221.429 814.651 224.129 819.251 225.429Z" stroke="white" stroke-miterlimit="10"/>
<path d="M819.251 228.029C814.651 229.229 810.951 232.029 808.551 235.629C812.451 237.529 817.051 238.029 821.551 236.829C826.151 235.629 829.851 232.829 832.251 229.329C828.351 227.429 823.751 226.829 819.251 228.029Z" stroke="white" stroke-miterlimit="10"/>
<path d="M863.951 228.029C859.451 226.829 854.851 227.429 850.951 229.329C853.351 232.829 857.051 235.629 861.651 236.829C866.151 238.029 870.751 237.529 874.651 235.629C872.251 232.029 868.551 229.329 863.951 228.029Z" stroke="white" stroke-miterlimit="10"/>
<path d="M863.951 225.429C868.551 224.129 872.251 221.429 874.651 217.829C870.751 215.929 866.151 215.429 861.651 216.629C857.051 217.829 853.351 220.529 850.951 224.129C854.851 226.029 859.451 226.629 863.951 225.429Z" stroke="white" stroke-miterlimit="10"/>
<path d="M831.451 246.329C830.251 250.829 830.751 255.429 832.651 259.329C836.251 256.829 839.051 253.229 840.251 248.729C841.451 244.129 840.951 239.629 839.051 235.729C835.451 238.129 832.651 241.829 831.451 246.329Z" stroke="white" stroke-miterlimit="10"/>
<path d="M844.15 235.729C842.35 239.629 841.75 244.129 842.95 248.729C844.15 253.229 846.951 256.829 850.551 259.329C852.451 255.429 853.05 250.829 851.75 246.329C850.55 241.829 847.75 238.129 844.15 235.729Z" stroke="white" stroke-miterlimit="10"/>
<path d="M851.751 207.129C853.051 202.629 852.451 198.029 850.551 194.129C846.951 196.629 844.151 200.229 842.951 204.829C841.751 209.329 842.351 213.829 844.251 217.729C847.751 215.329 850.551 211.629 851.751 207.129Z" stroke="white" stroke-miterlimit="10"/>
<path d="M832.651 194.129C830.751 198.029 830.251 202.629 831.451 207.129C832.651 211.629 835.451 215.329 839.051 217.729C840.951 213.829 841.451 209.329 840.251 204.829C839.051 200.229 836.251 196.629 832.651 194.129Z" stroke="white" stroke-miterlimit="10"/>
<path d="M819.251 225.429C823.751 226.629 828.351 226.029 832.251 224.129C829.851 220.529 826.151 217.829 821.551 216.629C817.051 215.429 812.451 215.929 808.551 217.829C810.951 221.429 814.651 224.129 819.251 225.429Z" stroke="white" stroke-miterlimit="10"/>
<path d="M819.251 228.029C814.651 229.229 810.951 232.029 808.551 235.629C812.451 237.529 817.051 238.029 821.551 236.829C826.151 235.629 829.851 232.829 832.251 229.329C828.351 227.429 823.751 226.829 819.251 228.029Z" stroke="white" stroke-miterlimit="10"/>
<path d="M863.951 228.029C859.451 226.829 854.851 227.429 850.951 229.329C853.351 232.829 857.051 235.629 861.651 236.829C866.151 238.029 870.751 237.529 874.651 235.629C872.251 232.029 868.551 229.329 863.951 228.029Z" stroke="white" stroke-miterlimit="10"/>
<path d="M863.951 225.429C868.551 224.129 872.251 221.429 874.651 217.829C870.751 215.929 866.151 215.429 861.651 216.629C857.051 217.829 853.351 220.529 850.951 224.129C854.851 226.029 859.451 226.629 863.951 225.429Z" stroke="white" stroke-miterlimit="10"/>
<path d="M834.951 215.829C836.651 217.629 837.251 220.329 837.451 222.729C835.051 222.529 832.251 222.029 830.551 220.229C828.751 218.429 828.151 215.729 828.051 213.429C830.351 213.529 833.151 214.029 834.951 215.829Z" stroke="white" stroke-miterlimit="10"/>
<path d="M848.351 215.829C846.551 217.629 845.951 220.329 845.851 222.729C848.151 222.529 850.951 222.029 852.751 220.229C854.451 218.429 855.051 215.729 855.251 213.429C852.851 213.529 850.151 214.029 848.351 215.829Z" stroke="white" stroke-miterlimit="10"/>
<path d="M848.351 237.529C846.551 235.829 845.951 233.129 845.851 230.729C848.151 230.929 850.951 231.429 852.751 233.229C854.451 235.029 855.051 237.729 855.251 240.029C852.851 239.929 850.051 239.329 848.351 237.529Z" stroke="white" stroke-miterlimit="10"/>
<path d="M834.951 237.529C836.651 235.829 837.251 233.129 837.451 230.729C835.051 230.929 832.251 231.429 830.551 233.229C828.751 235.029 828.151 237.729 828.051 240.029C830.351 239.929 833.151 239.329 834.951 237.529Z" stroke="white" stroke-miterlimit="10"/>
</g>
<g opacity="0.4">
<path d="M993.949 354.429C995.149 349.929 994.549 345.329 992.749 341.429C989.149 343.929 986.349 347.529 985.149 352.029C983.849 356.629 984.449 361.129 986.349 365.029C989.949 362.629 992.749 358.929 993.949 354.429Z" stroke="white" stroke-miterlimit="10"/>
<path d="M974.85 341.429C972.95 345.329 972.35 349.929 973.55 354.429C974.75 358.929 977.55 362.629 981.15 365.029C983.05 361.129 983.65 356.629 982.45 352.029C981.15 347.529 978.45 343.929 974.85 341.429Z" stroke="white" stroke-miterlimit="10"/>
<path d="M961.35 372.729C965.95 373.929 970.55 373.329 974.45 371.429C971.95 367.829 968.25 365.129 963.75 363.929C959.25 362.729 954.65 363.229 950.75 365.129C953.15 368.729 956.85 371.429 961.35 372.729Z" stroke="white" stroke-miterlimit="10"/>
<path d="M1006.15 372.729C1010.65 371.429 1014.35 368.729 1016.85 365.129C1012.85 363.229 1008.35 362.729 1003.75 363.929C999.25 365.129 995.55 367.829 993.05 371.429C997.05 373.329 1001.65 373.929 1006.15 372.729Z" stroke="white" stroke-miterlimit="10"/>
<path d="M993.949 354.429C995.149 349.929 994.549 345.329 992.749 341.429C989.149 343.929 986.349 347.529 985.149 352.029C983.849 356.629 984.449 361.129 986.349 365.029C989.949 362.629 992.749 358.929 993.949 354.429Z" stroke="white" stroke-miterlimit="10"/>
<path d="M974.85 341.429C972.95 345.329 972.35 349.929 973.55 354.429C974.75 358.929 977.55 362.629 981.15 365.029C983.05 361.129 983.65 356.629 982.45 352.029C981.15 347.529 978.45 343.929 974.85 341.429Z" stroke="white" stroke-miterlimit="10"/>
<path d="M961.35 372.729C965.95 373.929 970.55 373.329 974.45 371.429C971.95 367.829 968.25 365.129 963.75 363.929C959.25 362.729 954.65 363.229 950.75 365.129C953.15 368.729 956.85 371.429 961.35 372.729Z" stroke="white" stroke-miterlimit="10"/>
<path d="M1006.15 372.729C1010.65 371.429 1014.35 368.729 1016.85 365.129C1012.85 363.229 1008.35 362.729 1003.75 363.929C999.25 365.129 995.55 367.829 993.05 371.429C997.05 373.329 1001.65 373.929 1006.15 372.729Z" stroke="white" stroke-miterlimit="10"/>
<path d="M977.05 363.129C978.85 364.929 979.35 367.629 979.55 370.029C977.25 369.829 974.45 369.329 972.65 367.529C970.85 365.729 970.35 363.029 970.15 360.729C972.45 360.829 975.25 361.329 977.05 363.129Z" stroke="white" stroke-miterlimit="10"/>
<path d="M990.45 363.129C988.65 364.929 988.15 367.629 987.95 370.029C990.35 369.829 993.05 369.329 994.85 367.529C996.65 365.729 997.15 363.029 997.35 360.729C995.05 360.829 992.25 361.329 990.45 363.129Z" stroke="white" stroke-miterlimit="10"/>
</g>
<g opacity="0.4">
<path d="M739.25 299.629C738.75 301.529 738.95 303.329 739.75 304.929C741.15 303.929 742.35 302.429 742.85 300.629C743.35 298.729 743.15 296.929 742.35 295.329C740.85 296.329 739.75 297.829 739.25 299.629Z" stroke="white" stroke-miterlimit="10"/>
<path d="M744.45 295.329C743.65 296.929 743.45 298.729 743.95 300.629C744.45 302.429 745.55 303.929 747.05 304.929C747.85 303.329 748.05 301.529 747.55 299.629C747.05 297.829 745.95 296.329 744.45 295.329Z" stroke="white" stroke-miterlimit="10"/>
<path d="M747.55 283.529C748.05 281.729 747.85 279.829 747.05 278.229C745.55 279.229 744.45 280.729 743.95 282.629C743.45 284.429 743.65 286.329 744.45 287.929C745.95 286.929 747.05 285.429 747.55 283.529Z" stroke="white" stroke-miterlimit="10"/>
<path d="M739.75 278.229C738.95 279.829 738.75 281.729 739.25 283.529C739.75 285.429 740.85 286.929 742.35 287.929C743.15 286.329 743.35 284.429 742.85 282.629C742.35 280.729 741.25 279.229 739.75 278.229Z" stroke="white" stroke-miterlimit="10"/>
<path d="M734.251 291.029C736.051 291.529 737.951 291.329 739.551 290.529C738.551 289.029 737.051 287.929 735.151 287.429C733.351 286.929 731.451 287.129 729.851 287.929C730.851 289.429 732.351 290.529 734.251 291.029Z" stroke="white" stroke-miterlimit="10"/>
<path d="M734.251 292.129C732.351 292.629 730.851 293.829 729.851 295.229C731.451 296.029 733.351 296.229 735.151 295.729C737.051 295.229 738.551 294.129 739.551 292.629C737.951 291.929 736.051 291.629 734.251 292.129Z" stroke="white" stroke-miterlimit="10"/>
<path d="M752.551 292.129C750.751 291.629 748.851 291.929 747.251 292.629C748.251 294.129 749.751 295.229 751.651 295.729C753.451 296.229 755.351 296.029 756.951 295.229C755.951 293.829 754.451 292.629 752.551 292.129Z" stroke="white" stroke-miterlimit="10"/>
<path d="M752.551 291.029C754.451 290.529 755.951 289.429 756.951 287.929C755.351 287.229 753.451 286.929 751.651 287.429C749.751 287.929 748.251 289.029 747.251 290.529C748.851 291.329 750.751 291.529 752.551 291.029Z" stroke="white" stroke-miterlimit="10"/>
<path d="M739.25 299.629C738.75 301.529 738.95 303.329 739.75 304.929C741.15 303.929 742.35 302.429 742.85 300.629C743.35 298.729 743.15 296.929 742.35 295.329C740.85 296.329 739.75 297.829 739.25 299.629Z" stroke="white" stroke-miterlimit="10"/>
<path d="M744.45 295.329C743.65 296.929 743.45 298.729 743.95 300.629C744.45 302.429 745.55 303.929 747.05 304.929C747.85 303.329 748.05 301.529 747.55 299.629C747.05 297.829 745.95 296.329 744.45 295.329Z" stroke="white" stroke-miterlimit="10"/>
<path d="M747.55 283.529C748.05 281.729 747.85 279.829 747.05 278.229C745.55 279.229 744.45 280.729 743.95 282.629C743.45 284.429 743.65 286.329 744.45 287.929C745.95 286.929 747.05 285.429 747.55 283.529Z" stroke="white" stroke-miterlimit="10"/>
<path d="M739.75 278.229C738.95 279.829 738.75 281.729 739.25 283.529C739.75 285.429 740.85 286.929 742.35 287.929C743.15 286.329 743.35 284.429 742.85 282.629C742.35 280.729 741.25 279.229 739.75 278.229Z" stroke="white" stroke-miterlimit="10"/>
<path d="M734.251 291.029C736.051 291.529 737.951 291.329 739.551 290.529C738.551 289.029 737.051 287.929 735.151 287.429C733.351 286.929 731.451 287.129 729.851 287.929C730.851 289.429 732.351 290.529 734.251 291.029Z" stroke="white" stroke-miterlimit="10"/>
<path d="M734.251 292.129C732.351 292.629 730.851 293.829 729.851 295.229C731.451 296.029 733.351 296.229 735.151 295.729C737.051 295.229 738.551 294.129 739.551 292.629C737.951 291.929 736.051 291.629 734.251 292.129Z" stroke="white" stroke-miterlimit="10"/>
<path d="M752.551 292.129C750.751 291.629 748.851 291.929 747.251 292.629C748.251 294.129 749.751 295.229 751.651 295.729C753.451 296.229 755.351 296.029 756.951 295.229C755.951 293.829 754.451 292.629 752.551 292.129Z" stroke="white" stroke-miterlimit="10"/>
<path d="M752.551 291.029C754.451 290.529 755.951 289.429 756.951 287.929C755.351 287.229 753.451 286.929 751.651 287.429C749.751 287.929 748.251 289.029 747.251 290.529C748.851 291.329 750.751 291.529 752.551 291.029Z" stroke="white" stroke-miterlimit="10"/>
<path d="M740.651 287.129C741.351 287.929 741.551 289.029 741.651 289.929C740.751 289.929 739.551 289.629 738.851 288.929C738.151 288.229 737.851 287.129 737.851 286.129C738.751 286.229 739.951 286.429 740.651 287.129Z" stroke="white" stroke-miterlimit="10"/>
<path d="M746.15 287.129C745.45 287.929 745.15 289.029 745.15 289.929C746.05 289.929 747.25 289.629 747.95 288.929C748.65 288.229 748.95 287.129 748.95 286.129C748.05 286.229 746.85 286.429 746.15 287.129Z" stroke="white" stroke-miterlimit="10"/>
<path d="M746.15 296.029C745.45 295.329 745.15 294.229 745.15 293.229C746.05 293.329 747.25 293.529 747.95 294.229C748.65 295.029 748.95 296.129 748.95 297.029C748.05 297.029 746.85 296.829 746.15 296.029Z" stroke="white" stroke-miterlimit="10"/>
<path d="M740.651 296.029C741.351 295.329 741.551 294.229 741.651 293.229C740.751 293.329 739.551 293.529 738.851 294.229C738.151 295.029 737.851 296.129 737.851 297.029C738.751 297.029 739.951 296.829 740.651 296.029Z" stroke="white" stroke-miterlimit="10"/>
</g>
<g opacity="0.4">
<path d="M906.95 123.229C906.45 125.029 906.65 126.929 907.45 128.529C908.95 127.529 910.05 126.029 910.55 124.129C911.05 122.329 910.85 120.429 910.05 118.829C908.55 119.829 907.45 121.329 906.95 123.229Z" stroke="white" stroke-miterlimit="10"/>
<path d="M912.151 118.829C911.451 120.429 911.151 122.329 911.651 124.129C912.151 126.029 913.351 127.529 914.751 128.529C915.551 126.929 915.751 125.029 915.251 123.229C914.751 121.329 913.651 119.829 912.151 118.829Z" stroke="white" stroke-miterlimit="10"/>
<path d="M915.251 107.129C915.751 105.229 915.551 103.329 914.751 101.729C913.351 102.729 912.151 104.329 911.651 106.129C911.151 108.029 911.451 109.829 912.151 111.429C913.651 110.429 914.751 108.929 915.251 107.129Z" stroke="white" stroke-miterlimit="10"/>
<path d="M907.45 101.729C906.65 103.329 906.45 105.229 906.95 107.129C907.45 108.929 908.55 110.429 910.05 111.429C910.85 109.829 911.05 108.029 910.55 106.129C910.05 104.329 908.95 102.729 907.45 101.729Z" stroke="white" stroke-miterlimit="10"/>
<path d="M901.951 114.629C903.751 115.129 905.651 114.829 907.251 114.129C906.251 112.629 904.751 111.529 902.851 111.029C901.051 110.529 899.151 110.729 897.551 111.529C898.551 112.929 900.051 114.129 901.951 114.629Z" stroke="white" stroke-miterlimit="10"/>
<path d="M901.951 115.729C900.051 116.229 898.551 117.329 897.551 118.829C899.151 119.529 901.051 119.829 902.851 119.329C904.751 118.829 906.251 117.629 907.251 116.229C905.651 115.429 903.751 115.229 901.951 115.729Z" stroke="white" stroke-miterlimit="10"/>
<path d="M920.351 115.729C918.451 115.229 916.551 115.429 914.951 116.229C915.951 117.629 917.451 118.829 919.351 119.329C921.151 119.829 923.051 119.529 924.651 118.829C923.651 117.329 922.151 116.229 920.351 115.729Z" stroke="white" stroke-miterlimit="10"/>
<path d="M920.351 114.629C922.151 114.129 923.651 112.929 924.651 111.529C923.051 110.729 921.151 110.529 919.351 111.029C917.451 111.529 915.951 112.629 914.951 114.129C916.551 114.829 918.451 115.129 920.351 114.629Z" stroke="white" stroke-miterlimit="10"/>
<path d="M906.95 123.229C906.45 125.029 906.65 126.929 907.45 128.529C908.95 127.529 910.05 126.029 910.55 124.129C911.05 122.329 910.85 120.429 910.05 118.829C908.55 119.829 907.45 121.329 906.95 123.229Z" stroke="white" stroke-miterlimit="10"/>
<path d="M912.151 118.829C911.451 120.429 911.151 122.329 911.651 124.129C912.151 126.029 913.351 127.529 914.751 128.529C915.551 126.929 915.751 125.029 915.251 123.229C914.751 121.329 913.651 119.829 912.151 118.829Z" stroke="white" stroke-miterlimit="10"/>
<path d="M915.251 107.129C915.751 105.229 915.551 103.329 914.751 101.729C913.351 102.729 912.151 104.329 911.651 106.129C911.151 108.029 911.451 109.829 912.151 111.429C913.651 110.429 914.751 108.929 915.251 107.129Z" stroke="white" stroke-miterlimit="10"/>
<path d="M907.45 101.729C906.65 103.329 906.45 105.229 906.95 107.129C907.45 108.929 908.55 110.429 910.05 111.429C910.85 109.829 911.05 108.029 910.55 106.129C910.05 104.329 908.95 102.729 907.45 101.729Z" stroke="white" stroke-miterlimit="10"/>
<path d="M901.951 114.629C903.751 115.129 905.651 114.829 907.251 114.129C906.251 112.629 904.751 111.529 902.851 111.029C901.051 110.529 899.151 110.729 897.551 111.529C898.551 112.929 900.051 114.129 901.951 114.629Z" stroke="white" stroke-miterlimit="10"/>
<path d="M901.951 115.729C900.051 116.229 898.551 117.329 897.551 118.829C899.151 119.529 901.051 119.829 902.851 119.329C904.751 118.829 906.251 117.629 907.251 116.229C905.651 115.429 903.751 115.229 901.951 115.729Z" stroke="white" stroke-miterlimit="10"/>
<path d="M920.351 115.729C918.451 115.229 916.551 115.429 914.951 116.229C915.951 117.629 917.451 118.829 919.351 119.329C921.151 119.829 923.051 119.529 924.651 118.829C923.651 117.329 922.151 116.229 920.351 115.729Z" stroke="white" stroke-miterlimit="10"/>
<path d="M920.351 114.629C922.151 114.129 923.651 112.929 924.651 111.529C923.051 110.729 921.151 110.529 919.351 111.029C917.451 111.529 915.951 112.629 914.951 114.129C916.551 114.829 918.451 115.129 920.351 114.629Z" stroke="white" stroke-miterlimit="10"/>
<path d="M908.351 110.729C909.051 111.429 909.351 112.529 909.351 113.529C908.451 113.429 907.251 113.229 906.551 112.529C905.851 111.729 905.651 110.629 905.551 109.629C906.451 109.729 907.651 109.929 908.351 110.729Z" stroke="white" stroke-miterlimit="10"/>
<path d="M913.851 110.729C913.151 111.429 912.951 112.529 912.851 113.529C913.851 113.429 914.951 113.229 915.651 112.529C916.451 111.729 916.651 110.629 916.751 109.629C915.751 109.729 914.651 109.929 913.851 110.729Z" stroke="white" stroke-miterlimit="10"/>
<path d="M913.851 119.629C913.151 118.829 912.951 117.729 912.851 116.829C913.851 116.829 914.951 117.029 915.651 117.829C916.451 118.529 916.651 119.629 916.751 120.629C915.751 120.529 914.651 120.329 913.851 119.629Z" stroke="white" stroke-miterlimit="10"/>
<path d="M908.351 119.629C909.051 118.829 909.351 117.729 909.351 116.829C908.451 116.829 907.251 117.029 906.551 117.829C905.851 118.529 905.651 119.629 905.551 120.629C906.451 120.529 907.651 120.329 908.351 119.629Z" stroke="white" stroke-miterlimit="10"/>
</g>
<g opacity="0.4">
<path d="M547.75 369.429C548.35 367.129 548.05 364.729 547.15 362.729C545.35 364.029 543.95 365.929 543.35 368.229C542.75 370.529 542.95 372.929 543.95 374.829C545.75 373.629 547.15 371.729 547.75 369.429Z" stroke="white" stroke-miterlimit="10"/>
<path d="M538.15 362.729C537.25 364.729 536.95 367.129 537.55 369.429C538.15 371.729 539.55 373.629 541.35 374.829C542.35 372.929 542.55 370.529 541.95 368.229C541.35 365.929 539.95 364.029 538.15 362.729Z" stroke="white" stroke-miterlimit="10"/>
<path d="M547.75 369.429C548.35 367.129 548.05 364.729 547.15 362.729C545.35 364.029 543.95 365.929 543.35 368.229C542.75 370.529 542.95 372.929 543.95 374.829C545.75 373.629 547.15 371.729 547.75 369.429Z" stroke="white" stroke-miterlimit="10"/>
<path d="M538.15 362.729C537.25 364.729 536.95 367.129 537.55 369.429C538.15 371.729 539.55 373.629 541.35 374.829C542.35 372.929 542.55 370.529 541.95 368.229C541.35 365.929 539.95 364.029 538.15 362.729Z" stroke="white" stroke-miterlimit="10"/>
</g>
<g opacity="0.4">
<path d="M627.35 300.029C626.55 303.129 626.85 306.229 628.15 308.829C630.65 307.229 632.55 304.729 633.35 301.629C634.15 298.629 633.75 295.529 632.45 292.829C630.05 294.529 628.15 297.029 627.35 300.029Z" stroke="white" stroke-miterlimit="10"/>
<path d="M636.05 292.829C634.75 295.529 634.35 298.629 635.15 301.629C635.95 304.729 637.85 307.229 640.35 308.829C641.55 306.229 641.95 303.129 641.15 300.029C640.35 297.029 638.45 294.529 636.05 292.829Z" stroke="white" stroke-miterlimit="10"/>
<path d="M641.15 273.429C641.95 270.429 641.55 267.329 640.35 264.629C637.85 266.329 635.95 268.829 635.15 271.829C634.35 274.929 634.75 278.029 636.05 280.629C638.45 279.029 640.35 276.529 641.15 273.429Z" stroke="white" stroke-miterlimit="10"/>
<path d="M628.15 264.629C626.85 267.329 626.55 270.429 627.35 273.429C628.15 276.529 630.05 279.029 632.45 280.629C633.75 278.029 634.15 274.929 633.35 271.829C632.55 268.829 630.65 266.329 628.15 264.629Z" stroke="white" stroke-miterlimit="10"/>
<path d="M619.051 285.829C622.151 286.629 625.251 286.329 627.951 285.029C626.251 282.529 623.751 280.729 620.651 279.829C617.551 279.029 614.451 279.429 611.851 280.729C613.451 283.129 615.951 285.029 619.051 285.829Z" stroke="white" stroke-miterlimit="10"/>
<path d="M619.051 287.629C615.951 288.529 613.451 290.329 611.851 292.829C614.451 294.029 617.551 294.429 620.651 293.629C623.751 292.829 626.251 290.929 627.951 288.529C625.251 287.229 622.151 286.829 619.051 287.629Z" stroke="white" stroke-miterlimit="10"/>
<path d="M649.451 287.629C646.351 286.829 643.251 287.229 640.551 288.529C642.251 290.929 644.751 292.829 647.851 293.629C650.951 294.429 654.051 294.029 656.651 292.829C655.051 290.329 652.551 288.529 649.451 287.629Z" stroke="white" stroke-miterlimit="10"/>
<path d="M649.451 285.829C652.551 285.029 655.051 283.129 656.651 280.729C654.051 279.429 650.951 279.029 647.851 279.929C644.751 280.729 642.251 282.529 640.551 285.029C643.251 286.329 646.351 286.629 649.451 285.829Z" stroke="white" stroke-miterlimit="10"/>
<path d="M627.35 300.029C626.55 303.129 626.85 306.229 628.15 308.829C630.65 307.229 632.55 304.729 633.35 301.629C634.15 298.629 633.75 295.529 632.45 292.829C630.05 294.529 628.15 297.029 627.35 300.029Z" stroke="white" stroke-miterlimit="10"/>
<path d="M636.05 292.829C634.75 295.529 634.35 298.629 635.15 301.629C635.95 304.729 637.85 307.229 640.35 308.829C641.55 306.229 641.95 303.129 641.15 300.029C640.35 297.029 638.45 294.529 636.05 292.829Z" stroke="white" stroke-miterlimit="10"/>
<path d="M641.15 273.429C641.95 270.429 641.55 267.329 640.35 264.629C637.85 266.329 635.95 268.829 635.15 271.829C634.35 274.929 634.75 278.029 636.05 280.629C638.45 279.029 640.35 276.529 641.15 273.429Z" stroke="white" stroke-miterlimit="10"/>
<path d="M628.15 264.629C626.85 267.329 626.55 270.429 627.35 273.429C628.15 276.529 630.05 279.029 632.45 280.629C633.75 278.029 634.15 274.929 633.35 271.829C632.55 268.829 630.65 266.329 628.15 264.629Z" stroke="white" stroke-miterlimit="10"/>
<path d="M619.051 285.829C622.151 286.629 625.251 286.329 627.951 285.029C626.251 282.529 623.751 280.729 620.651 279.829C617.551 279.029 614.451 279.429 611.851 280.729C613.451 283.129 615.951 285.029 619.051 285.829Z" stroke="white" stroke-miterlimit="10"/>
<path d="M619.051 287.629C615.951 288.529 613.451 290.329 611.851 292.829C614.451 294.029 617.551 294.429 620.651 293.629C623.751 292.829 626.251 290.929 627.951 288.529C625.251 287.229 622.151 286.829 619.051 287.629Z" stroke="white" stroke-miterlimit="10"/>
<path d="M649.451 287.629C646.351 286.829 643.251 287.229 640.551 288.529C642.251 290.929 644.751 292.829 647.851 293.629C650.951 294.429 654.051 294.029 656.651 292.829C655.051 290.329 652.551 288.529 649.451 287.629Z" stroke="white" stroke-miterlimit="10"/>
<path d="M649.451 285.829C652.551 285.029 655.051 283.129 656.651 280.729C654.051 279.429 650.951 279.029 647.851 279.929C644.751 280.729 642.251 282.529 640.551 285.029C643.251 286.329 646.351 286.629 649.451 285.829Z" stroke="white" stroke-miterlimit="10"/>
<path d="M629.651 279.429C630.951 280.629 631.251 282.429 631.351 284.029C629.851 283.929 627.951 283.529 626.751 282.329C625.551 281.129 625.151 279.329 625.051 277.729C626.551 277.829 628.451 278.129 629.651 279.429Z" stroke="white" stroke-miterlimit="10"/>
<path d="M638.751 279.429C637.551 280.629 637.251 282.429 637.051 284.029C638.651 283.929 640.551 283.529 641.751 282.329C642.951 281.129 643.351 279.329 643.451 277.729C641.851 277.829 640.051 278.129 638.751 279.429Z" stroke="white" stroke-miterlimit="10"/>
<path d="M638.751 294.129C637.551 292.929 637.251 291.029 637.051 289.429C638.651 289.629 640.551 289.929 641.751 291.129C642.951 292.329 643.351 294.229 643.451 295.829C641.851 295.729 640.051 295.329 638.751 294.129Z" stroke="white" stroke-miterlimit="10"/>
<path d="M629.651 294.129C630.951 292.929 631.251 291.029 631.351 289.429C629.851 289.629 627.951 289.929 626.751 291.129C625.551 292.329 625.151 294.229 625.051 295.829C626.551 295.729 628.451 295.329 629.651 294.129Z" stroke="white" stroke-miterlimit="10"/>
</g>
</g>
<defs>
<clipPath id="clip0_39_392">
<rect width="1268" height="370" fill="white"/>
</clipPath>
</defs>
</svg>
